<svg id="Layer_1" data-name="Layer 1" xmlns="http://www.w3.org/2000/svg" viewBox="0 0 445.82 494.62"><defs><style>.cls-1{fill:#3a3a3c;}</style></defs><title>Hỗ trợ ttv 2</title><path class="cls-1" d="M443.52,153.79a35,35,0,0,0-5.76.58C417.7,70.89,343.82,8.69,255.76,8.69S93.84,70.87,73.76,154.32a34.9,34.9,0,0,0-5.28-.53,35.43,35.43,0,0,0-35.39,35.39v42.47A35.43,35.43,0,0,0,68.48,267a35,35,0,0,0,12.18-2.29,70.78,70.78,0,0,0,65.68,44.76,14.16,14.16,0,1,0,0-28.31,42.51,42.51,0,0,1-42.47-42.47V193.84c3-83.09,69.91-149.76,151.88-149.76,83.91,0,152.17,69.81,152.17,155.62,0,.35.18.65.2,1v30.95a35.39,35.39,0,1,0,70.78,0V189.18A35.43,35.43,0,0,0,443.52,153.79Z" transform="translate(-33.09 -8.69)"/><path class="cls-1" d="M371.92,351.79H330.38a28.31,28.31,0,0,0-23.21,12.1l-29,41.58a28.31,28.31,0,0,1-46.63-.31l-27.81-41a28.3,28.3,0,0,0-23.42-12.41h-40.8a95.14,95.14,0,0,0-95.14,95.14v42.22a14.16,14.16,0,0,0,14.16,14.16H452.91a14.16,14.16,0,0,0,14.16-14.16V446.93A95.14,95.14,0,0,0,371.92,351.79ZM255.75,316.4A116.7,116.7,0,1,0,139.06,199.71,116.7,116.7,0,0,0,255.75,316.4Z" transform="translate(-33.09 -8.69)"/></svg>