<?xml version="1.0" encoding="utf-8"?>
<!-- Generator: Adobe Illustrator 25.2.1, SVG Export Plug-In . SVG Version: 6.00 Build 0)  -->
<svg version="1.1" id="Layer_1" xmlns="http://www.w3.org/2000/svg" xmlns:xlink="http://www.w3.org/1999/xlink" x="0px" y="0px"
	 viewBox="0 0 1700.8 1700.8" style="enable-background:new 0 0 1700.8 1700.8;" xml:space="preserve">
<style type="text/css">
	.st0{opacity:9.000000e-02;}
	.st1{fill:#FF951F;}
	.st2{opacity:0.11;}
	.st3{clip-path:url(#SVGID_2_);}
	.st4{opacity:0.27;}
	.st5{opacity:0.33;}
	.st6{opacity:0.14;fill:#FFFFFF;enable-background:new    ;}
	.st7{fill:#FFFFFF;}
	.st8{opacity:0.5;fill:#FFFFFF;enable-background:new    ;}
	.st9{opacity:0.6;fill:#FFFFFF;enable-background:new    ;}
	.st10{fill:#6179C4;}
	.st11{fill:#05493C;}
	.st12{fill:#148C78;}
	.st13{opacity:0.32;}
	.st14{opacity:0.63;fill:#FF951F;enable-background:new    ;}
	.st15{opacity:0.4;}
	.st16{fill:#D16800;}
	.st17{clip-path:url(#SVGID_4_);}
	.st18{fill:#6CBAAB;}
	.st19{fill:#408E7F;}
	.st20{fill:#90C4BA;}
	.st21{fill:#ADD0F6;}
	.st22{fill:#D4E7F8;}
	.st23{fill:#D5DFE8;}
	.st24{fill:#C46506;}
	.st25{opacity:0.2;fill:#242424;enable-background:new    ;}
	.st26{opacity:0.2;fill:#148C78;enable-background:new    ;}
	.st27{fill:#ABCEF4;}
	.st28{opacity:0.2;}
	.st29{fill:#FFCB97;}
	.st30{fill:#6179C2;}
	.st31{opacity:0.26;}
	.st32{opacity:0.44;}
	.st33{fill:#EEF6F9;}
	.st34{fill:#FFB923;}
	.st35{fill:#FD5A23;}
</style>
<g>
	<g>
		<g class="st0">
			<path class="st1" d="M759,273.2c188.8,37.2,285.1,251,589.1,441.2s237,933-243,811.9c-458-115.6-479.2-106.4-779.1-95.8
				C-49.5,1443.8,161.7,155.5,759,273.2z"/>
		</g>
		<g class="st2">
			<path class="st1" d="M1270.9,586.6c-88.6-70.5-162.4-193.5-120.4-312.1c42-118.5,128.6,102.1,198.3,175.6
				C1449.6,556.5,1456.3,734.1,1270.9,586.6z"/>
		</g>
		<g>
			<g>
				<defs>
					<path id="SVGID_1_" d="M759,273.2c188.8,37.2,285.1,251,589.1,441.2s237,933-243,811.9c-458-115.6-479.2-106.4-779.1-95.8
						C-49.5,1443.8,161.7,155.5,759,273.2z"/>
				</defs>
				<clipPath id="SVGID_2_">
					<use xlink:href="#SVGID_1_"  style="overflow:visible;"/>
				</clipPath>
				<g class="st3">
					<g class="st4">
						<g>
							<g>
								<polygon class="st1" points="168.9,388.3 168.9,336 255.7,336 255.7,86.1 279.6,86.1 279.6,336 373,336 373,388.3 
									423.1,388.3 423.1,1436.3 62.1,1436.3 62.1,388.3 								"/>
							</g>
							<g>
								<rect x="62.1" y="388.3" class="st1" width="50" height="942.7"/>
							</g>
						</g>
						<g>
							<g>
								<rect x="242.6" y="637.9" class="st1" width="360.9" height="798.4"/>
							</g>
							<g>
								<rect x="242.6" y="637.9" class="st1" width="50" height="798.4"/>
							</g>
							<g>
								<rect x="501.4" y="672" class="st1" width="51.8" height="21.5"/>
							</g>
							<g>
								<rect x="414.2" y="672" class="st1" width="51.8" height="21.5"/>
							</g>
							<g>
								<rect x="501.4" y="750.2" class="st1" width="51.8" height="21.5"/>
							</g>
							<g>
								<rect x="414.2" y="750.2" class="st1" width="51.8" height="21.5"/>
							</g>
							<g>
								<rect x="327" y="750.2" class="st1" width="51.8" height="21.5"/>
							</g>
							<g>
								<rect x="501.4" y="828.5" class="st1" width="51.8" height="21.5"/>
							</g>
							<g>
								<rect x="327" y="828.5" class="st1" width="51.8" height="21.5"/>
							</g>
							<g>
								<rect x="414.2" y="867.6" class="st1" width="51.8" height="21.5"/>
							</g>
							<g>
								<rect x="501.4" y="906.7" class="st1" width="51.8" height="21.5"/>
							</g>
							<g>
								<rect x="414.2" y="945.9" class="st1" width="51.8" height="21.5"/>
							</g>
							<g>
								<rect x="501.4" y="985" class="st1" width="51.8" height="21.5"/>
							</g>
							<g>
								<rect x="327" y="985" class="st1" width="51.8" height="21.5"/>
							</g>
							<g>
								<rect x="501.4" y="1057.3" class="st1" width="51.8" height="21.5"/>
							</g>
							<g>
								<rect x="414.2" y="1057.3" class="st1" width="51.8" height="21.5"/>
							</g>
							<g>
								<rect x="501.4" y="1135.6" class="st1" width="51.8" height="21.5"/>
							</g>
							<g>
								<rect x="414.2" y="1135.6" class="st1" width="51.8" height="21.5"/>
							</g>
							<g>
								<rect x="327" y="1135.6" class="st1" width="51.8" height="21.5"/>
							</g>
							<g>
								<rect x="501.4" y="1213.9" class="st1" width="51.8" height="21.5"/>
							</g>
							<g>
								<rect x="327" y="1213.9" class="st1" width="51.8" height="21.5"/>
							</g>
							<g>
								<rect x="414.2" y="1253" class="st1" width="51.8" height="21.5"/>
							</g>
							<g>
								<rect x="327" y="1253" class="st1" width="51.8" height="21.5"/>
							</g>
							<g>
								<rect x="501.4" y="1292.1" class="st1" width="51.8" height="21.5"/>
							</g>
							<g>
								<rect x="414.2" y="1331.3" class="st1" width="51.8" height="21.5"/>
							</g>
							<g>
								<rect x="501.4" y="1370.4" class="st1" width="51.8" height="21.5"/>
							</g>
							<g>
								<rect x="327" y="1370.4" class="st1" width="51.8" height="21.5"/>
							</g>
						</g>
						<g>
							<g>
								<rect x="1106.2" y="637.9" class="st1" width="360.9" height="798.4"/>
							</g>
							<g>
								<rect x="1106.2" y="637.9" class="st1" width="50" height="798.4"/>
							</g>
						</g>
						<g>
							<g class="st5">
								<rect x="593.5" y="258.2" class="st1" width="484.2" height="1178.1"/>
							</g>
							<g>
								<rect x="593.5" y="258.2" class="st1" width="50" height="1178.1"/>
							</g>
							<g>
								<rect x="951.1" y="314.6" class="st1" width="75.6" height="31.4"/>
							</g>
							<g>
								<rect x="823.7" y="314.6" class="st1" width="75.6" height="31.4"/>
							</g>
							<g>
								<rect x="951.1" y="428.9" class="st1" width="75.6" height="31.4"/>
							</g>
							<g>
								<rect x="823.7" y="428.9" class="st1" width="75.6" height="31.4"/>
							</g>
							<g>
								<rect x="696.4" y="428.9" class="st1" width="75.6" height="31.4"/>
							</g>
							<g>
								<rect x="951.1" y="543.2" class="st1" width="75.6" height="31.4"/>
							</g>
							<g>
								<rect x="696.4" y="543.2" class="st1" width="75.6" height="31.4"/>
							</g>
							<g>
								<rect x="823.7" y="600.4" class="st1" width="75.6" height="31.4"/>
							</g>
							<g>
								<rect x="951.1" y="657.5" class="st1" width="75.6" height="31.4"/>
							</g>
							<g>
								<rect x="823.7" y="714.6" class="st1" width="75.6" height="31.4"/>
							</g>
							<g>
								<rect x="951.1" y="771.8" class="st1" width="75.6" height="31.4"/>
							</g>
							<g>
								<rect x="696.4" y="771.8" class="st1" width="75.6" height="31.4"/>
							</g>
							<g>
								<rect x="951.1" y="877.4" class="st1" width="75.6" height="31.4"/>
							</g>
							<g>
								<rect x="823.7" y="877.4" class="st1" width="75.6" height="31.4"/>
							</g>
							<g>
								<rect x="951.1" y="991.7" class="st1" width="75.6" height="31.4"/>
							</g>
							<g>
								<rect x="823.7" y="991.7" class="st1" width="75.6" height="31.4"/>
							</g>
							<g>
								<rect x="696.4" y="991.7" class="st1" width="75.6" height="31.4"/>
							</g>
							<g>
								<rect x="951.1" y="1106" class="st1" width="75.6" height="31.4"/>
							</g>
							<g>
								<rect x="696.4" y="1106" class="st1" width="75.6" height="31.4"/>
							</g>
							<g>
								<rect x="823.7" y="1163.1" class="st1" width="75.6" height="31.4"/>
							</g>
							<g>
								<rect x="696.4" y="1163.1" class="st1" width="75.6" height="31.4"/>
							</g>
							<g>
								<rect x="951.1" y="1220.3" class="st1" width="75.6" height="31.4"/>
							</g>
							<g>
								<rect x="823.7" y="1277.4" class="st1" width="75.6" height="31.4"/>
							</g>
							<g>
								<rect x="951.1" y="1334.5" class="st1" width="75.6" height="31.4"/>
							</g>
							<g>
								<rect x="696.4" y="1334.5" class="st1" width="75.6" height="31.4"/>
							</g>
						</g>
						<g>
							<g>
								<rect x="1354.8" y="346" class="st1" width="474.6" height="1090.3"/>
							</g>
							<g>
								<rect x="1354.8" y="346" class="st1" width="49" height="1090.3"/>
							</g>
							<g>
								<rect x="1705.3" y="398.2" class="st1" width="74.1" height="29"/>
							</g>
							<g>
								<rect x="1580.5" y="398.2" class="st1" width="74.1" height="29"/>
							</g>
							<g>
								<rect x="1705.3" y="504" class="st1" width="74.1" height="29.1"/>
							</g>
							<g>
								<rect x="1580.5" y="504" class="st1" width="74.1" height="29.1"/>
							</g>
							<g>
								<rect x="1455.7" y="504" class="st1" width="74.1" height="29.1"/>
							</g>
							<g>
								<rect x="1705.3" y="609.8" class="st1" width="74.1" height="29.1"/>
							</g>
							<g>
								<rect x="1455.7" y="609.8" class="st1" width="74.1" height="29.1"/>
							</g>
							<g>
								<rect x="1580.5" y="662.7" class="st1" width="74.1" height="29"/>
							</g>
							<g>
								<rect x="1705.3" y="715.5" class="st1" width="74.1" height="29"/>
							</g>
							<g>
								<rect x="1580.5" y="768.4" class="st1" width="74.1" height="29.1"/>
							</g>
							<g>
								<rect x="1705.3" y="821.3" class="st1" width="74.1" height="29"/>
							</g>
							<g>
								<rect x="1455.7" y="821.3" class="st1" width="74.1" height="29"/>
							</g>
							<g>
								<rect x="1705.3" y="919.1" class="st1" width="74.1" height="29"/>
							</g>
							<g>
								<rect x="1580.5" y="919.1" class="st1" width="74.1" height="29"/>
							</g>
							<g>
								<rect x="1705.3" y="1024.8" class="st1" width="74.1" height="29"/>
							</g>
							<g>
								<rect x="1580.5" y="1024.8" class="st1" width="74.1" height="29"/>
							</g>
							<g>
								<rect x="1455.7" y="1024.8" class="st1" width="74.1" height="29"/>
							</g>
							<g>
								<rect x="1705.3" y="1130.6" class="st1" width="74.1" height="29"/>
							</g>
							<g>
								<rect x="1455.7" y="1130.6" class="st1" width="74.1" height="29"/>
							</g>
							<g>
								<rect x="1580.5" y="1183.5" class="st1" width="74.1" height="29"/>
							</g>
							<g>
								<rect x="1455.7" y="1183.5" class="st1" width="74.1" height="29"/>
							</g>
							<g>
								<rect x="1705.3" y="1236.4" class="st1" width="74.1" height="29"/>
							</g>
							<g>
								<rect x="1580.5" y="1289.2" class="st1" width="74.1" height="29"/>
							</g>
							<g>
								<rect x="1705.3" y="1342.1" class="st1" width="74.1" height="29.1"/>
							</g>
							<g>
								<rect x="1455.7" y="1342.1" class="st1" width="74.1" height="29.1"/>
							</g>
						</g>
						<g>
							<g>
								<rect x="-179" y="692.7" class="st1" width="305.7" height="743.6"/>
							</g>
							<g>
								<rect x="-179" y="692.7" class="st1" width="31.6" height="743.6"/>
							</g>
							<g>
								<rect x="46.7" y="728.3" class="st1" width="47.7" height="19.8"/>
							</g>
							<g>
								<rect x="-33.7" y="728.3" class="st1" width="47.7" height="19.8"/>
							</g>
							<g>
								<rect x="46.7" y="800.4" class="st1" width="47.7" height="19.8"/>
							</g>
							<g>
								<rect x="-33.7" y="800.4" class="st1" width="47.7" height="19.8"/>
							</g>
							<g>
								<rect x="-114" y="800.4" class="st1" width="47.7" height="19.8"/>
							</g>
							<g>
								<rect x="46.7" y="872.6" class="st1" width="47.7" height="19.8"/>
							</g>
							<g>
								<rect x="-114" y="872.6" class="st1" width="47.7" height="19.8"/>
							</g>
							<g>
								<rect x="-33.7" y="908.6" class="st1" width="47.7" height="19.8"/>
							</g>
							<g>
								<rect x="46.7" y="944.7" class="st1" width="47.7" height="19.8"/>
							</g>
							<g>
								<rect x="-33.7" y="980.8" class="st1" width="47.7" height="19.8"/>
							</g>
							<g>
								<rect x="46.7" y="1016.8" class="st1" width="47.7" height="19.8"/>
							</g>
							<g>
								<rect x="-114" y="1016.8" class="st1" width="47.7" height="19.8"/>
							</g>
							<g>
								<rect x="46.7" y="1083.5" class="st1" width="47.7" height="19.8"/>
							</g>
							<g>
								<rect x="-33.7" y="1083.5" class="st1" width="47.7" height="19.8"/>
							</g>
							<g>
								<rect x="46.7" y="1155.6" class="st1" width="47.7" height="19.8"/>
							</g>
							<g>
								<rect x="-33.7" y="1155.6" class="st1" width="47.7" height="19.8"/>
							</g>
							<g>
								<rect x="-114" y="1155.6" class="st1" width="47.7" height="19.8"/>
							</g>
							<g>
								<rect x="46.7" y="1227.8" class="st1" width="47.7" height="19.8"/>
							</g>
							<g>
								<rect x="-114" y="1227.8" class="st1" width="47.7" height="19.8"/>
							</g>
							<g>
								<rect x="-33.7" y="1263.9" class="st1" width="47.7" height="19.8"/>
							</g>
							<g>
								<rect x="-114" y="1263.9" class="st1" width="47.7" height="19.8"/>
							</g>
							<g>
								<rect x="46.7" y="1299.9" class="st1" width="47.7" height="19.8"/>
							</g>
							<g>
								<rect x="-33.7" y="1336" class="st1" width="47.7" height="19.8"/>
							</g>
							<g>
								<rect x="46.7" y="1372.1" class="st1" width="47.7" height="19.8"/>
							</g>
							<g>
								<rect x="-114" y="1372.1" class="st1" width="47.7" height="19.8"/>
							</g>
						</g>
					</g>
					<g>
						<g>
							<rect x="-370.6" y="-28.4" class="st6" width="1295.4" height="1477"/>
							<rect x="910.7" y="-45.3" class="st7" width="28.3" height="1513"/>
							<polygon class="st8" points="75.4,1421.9 -25.1,1421.9 513.8,-11.5 614.4,-11.5 							"/>
							<polygon class="st8" points="-102.1,1421.9 -152.4,1421.9 386.6,-11.5 436.9,-11.5 							"/>
							<polygon class="st8" points="498.1,1421.9 447.9,1421.9 909.9,142.4 909.9,245.5 							"/>
							<rect x="-384.7" y="1431.7" class="st7" width="1323.8" height="39.1"/>
							<rect x="478.9" y="-37.7" class="st7" width="28.3" height="1497.7"/>
							<rect x="-356.2" y="1421.9" class="st7" width="1266.8" height="11.9"/>
							<rect x="-384.7" y="-45.3" class="st7" width="1323.8" height="33.8"/>
							<rect x="-356.5" y="-11.5" class="st7" width="1267.3" height="11.9"/>
						</g>
						<g>
							<rect x="931.7" y="-57.7" class="st6" width="1295.4" height="1477"/>
							<rect x="910.8" y="-45.3" class="st7" width="28.3" height="1513"/>
							<polygon class="st8" points="1145.9,1421.9 1045.4,1421.9 1584.3,-11.5 1684.9,-11.5 							"/>
							<polygon class="st8" points="968.4,1421.9 918.1,1421.9 1457.1,-11.5 1507.4,-11.5 							"/>
							<polygon class="st9" points="1793.7,1421.9 1743.4,1421.9 2205.5,142.4 2205.5,245.5 							"/>
							<rect x="1342.6" y="-37.7" class="st7" width="28.3" height="1497.7"/>
							<rect x="910.8" y="1431.7" class="st7" width="1323.8" height="39.1"/>
							<rect x="1774.4" y="-37.7" class="st7" width="28.3" height="1497.7"/>
							<rect x="939.3" y="1421.9" class="st7" width="1266.8" height="11.9"/>
							<rect x="910.8" y="-45.3" class="st7" width="1323.8" height="33.8"/>
							<rect x="939" y="-11.5" class="st7" width="1267.3" height="11.9"/>
						</g>
						<rect x="-384.7" y="221.1" class="st7" width="2665.9" height="16.9"/>
						<rect x="-384.7" y="671.7" class="st7" width="2665.9" height="16.9"/>
						<rect x="-384.7" y="1122.4" class="st7" width="2665.9" height="16.9"/>
					</g>
				</g>
			</g>
		</g>
	</g>
	<path class="st1" d="M1421.2,1475.2H304c-1.1,0-2.1-0.9-2.1-2.1s0.9-2.1,2.1-2.1h1117.2c1.1,0,2.1,0.9,2.1,2.1
		S1422.3,1475.2,1421.2,1475.2z"/>
	<g>
		<g>
			<g>
				<g>
					
						<rect x="252.4" y="578.9" transform="matrix(2.006500e-03 -1 1 2.006500e-03 -95.3309 1657.5319)" class="st7" width="1060.8" height="595.2"/>
					<g>
						<path class="st10" d="M1080.6,1408.8l-597.8-1.2l2-1063.5l597.8,1.2L1080.6,1408.8z M485.5,1404.9l592.5,1.2l2-1058.1
							l-592.5-1.2L485.5,1404.9z"/>
					</g>
				</g>
				<path class="st11" d="M1060.8,306.1l-344.1,2l-0.1,44.7l174.3,0.4l124.2,0.7c41.8,0.1,75.7,34.1,75.6,75.9l-1.6,864.1
					c-0.1,41.9-34.1,75.7-75.9,75.6l-298.5,0.6l-0.2,93.8l344.1,3.2c41.8,0.1,75.8-33.8,75.9-75.6l1.9-1009.5
					C1136.5,340.2,1102.6,306.2,1060.8,306.1z"/>
				<g>
					<path class="st12" d="M1035,305.8c-1.7-0.1-3.5-0.2-5.3-0.2l-529.1-0.1c-27.1,0-49.1,22-49.1,49.1l-0.2,1062.9
						c0,27.1,22,49.1,49.1,49.1l529.1,0.1c1.7,0,3.5,0,5.2-0.2c39.5-2.6,70.7-35.5,70.7-75.6l0.2-1009.4
						C1105.5,341.3,1074.4,308.5,1035,305.8z M1059.7,1320c0,27.1-22,49.1-49.1,49.1L546,1369c-27.1,0-49.1-22-49.1-49.1l0.2-917.5
						c0-27.1,22-49.1,49.1-49.1l464.6,0.1c27.1,0,49.1,22,49.1,49.1L1059.7,1320z"/>
				</g>
				<path class="st11" d="M840.4,1440.6l-126.1-0.3c-12.6,0-22.9-10.3-22.9-22.9l0,0c0-12.6,10.3-22.9,22.9-22.9l126.1,0.3
					c12.6,0,22.9,10.3,22.9,23l0,0C863.3,1430.4,853.1,1440.7,840.4,1440.6z"/>
			</g>
		</g>
	</g>
	<g>
		<g>
			<g>
				<path class="st7" d="M953.1,477.5V766c0,5-4.1,9.1-9.1,9.1H592.2c-5,0-9-4.1-9-9.1V477.5c0-6.4,5.2-11.6,11.5-11.6h346.9
					C948,466,953.1,471.2,953.1,477.5z"/>
				<g>
					<path class="st12" d="M944.1,776.3H592.2c-5.6,0-10.2-4.6-10.2-10.2V477.5c0-7,5.7-12.7,12.7-12.7h346.9
						c7,0,12.7,5.7,12.7,12.7V766C954.3,771.7,949.7,776.3,944.1,776.3z M594.7,467.2c-5.7,0-10.3,4.6-10.3,10.4v288.5
						c0,4.3,3.5,7.9,7.8,7.9h351.9c4.3,0,7.9-3.5,7.9-7.9V477.5c0-5.7-4.6-10.3-10.4-10.3L594.7,467.2L594.7,467.2z"/>
				</g>
			</g>
			<g class="st13">
				<path class="st1" d="M953.1,505.8H583.2v-28.2c0-6.4,5.2-11.5,11.5-11.5h346.9c6.4,0,11.5,5.2,11.5,11.5V505.8z"/>
				<g>
					<path class="st1" d="M954.3,507H582v-29.4c0-7,5.7-12.7,12.7-12.7h346.9c7,0,12.7,5.7,12.7,12.7L954.3,507L954.3,507z
						 M584.3,504.6h367.6v-27c0-5.7-4.6-10.4-10.4-10.4H594.7c-5.7,0-10.4,4.6-10.4,10.4V504.6z"/>
				</g>
			</g>
			<g>
				<path class="st7" d="M646.8,485.9c0-3.4,2.7-6.1,6.1-6.1c3.4,0,6.1,2.7,6.1,6.1s-2.7,6.1-6.1,6.1S646.8,489.3,646.8,485.9z"/>
				<path class="st7" d="M623.3,485.9c0-3.4,2.7-6.1,6.1-6.1c3.4,0,6.1,2.7,6.1,6.1s-2.7,6.1-6.1,6.1S623.3,489.3,623.3,485.9z"/>
				<path class="st7" d="M599.8,485.9c0-3.4,2.7-6.1,6.1-6.1c3.4,0,6.1,2.7,6.1,6.1s-2.7,6.1-6.1,6.1S599.8,489.3,599.8,485.9z"/>
			</g>
			<polygon class="st7" points="924,481.4 927,478.4 931.4,482.7 935.7,478.4 938.7,481.4 934.4,485.7 938.7,490.1 935.7,493.1 
				931.4,488.8 927,493.1 924,490.1 928.3,485.7 			"/>
		</g>
		<g>
			<g>
				<rect x="698.3" y="680.7" class="st12" width="48.5" height="75.9"/>
				<rect x="628.6" y="733.9" class="st1" width="48.5" height="22.6"/>
				<rect x="764.6" y="652.4" class="st1" width="48.5" height="104.1"/>
				<rect x="831" y="624.8" class="st12" width="48.5" height="131.8"/>
			</g>
			<g>
				<g>
					<g>
						<path class="st1" d="M859.2,560l-2.5,1.9l-4.2,3.2l-0.9,0.6l0,0l-36.2,27.7l-10.8,8.3l0,0l-7.7,5.9l-0.3-0.2l-0.9-0.7
							l-7.8-6.2l-17.7-13.8l-3.5-2.8l-0.7-0.6l-5.9-4.7l-4,6.9l-23.9,40.6l-5,8.2l-3.3,1l-5.9,1.8l0,0l-28.8,8.6l0,0l-5.4,1.6
							l-3.8,3.9l-0.9,0.9l-2.4,2.5l0,0l-34.6,36.1l0,0l-8.6,8.9l-0.3-0.3l0,0l-8.1-8.4c0.4-1.4,1.2-2.6,2.2-3.7
							c0.3-0.3,0.6-0.6,1-0.9l1.7,1.7l3.4,3.5l0.1,0.1l5.3-5.5l1.2-1.2l32.7-34.1l0,0l7.9-8.3l0.3-0.3l6.2-1.9l5.5-1.7l23.9-7.2l0,0
							l7.1-2.1l3.8-6.4l24.7-42l6.4-10.8l10.6,8.4l22.3,17.6l5.5,4.3l4.7-3.6l0,0l1.8-1.4l7.1-5.4l37.9-28.9l5-3.8l2.5-1.9
							L859.2,560z"/>
						<g>
							<polygon class="st1" points="869.7,589.5 894.8,529.4 830.2,537.8 							"/>
						</g>
					</g>
					<path class="st14" d="M642.5,694.3c-0.3,4.9-4.6,8.7-9.5,8.3l0,0c-4.9-0.3-8.6-4.6-8.3-9.5c0-0.7,0.2-1.4,0.4-2
						c0.4-1.4,1.2-2.6,2.2-3.7c0.3-0.3,0.6-0.6,1-0.9c1.7-1.2,3.8-1.9,6-1.8c0.1,0,0.1,0,0.2,0l0,0c1.6,0.1,3.1,0.7,4.3,1.6
						c1.5,1.1,2.7,2.6,3.3,4.4C642.5,691.9,642.6,693.1,642.5,694.3z"/>
					<path class="st14" d="M689.3,647.1c-0.3,4.9-4.6,8.7-9.5,8.3c-4.9-0.3-8.7-4.6-8.3-9.5c0.3-4.9,4.6-8.7,9.5-8.3
						C685.9,637.9,689.6,642.2,689.3,647.1z"/>
					<path class="st14" d="M734.3,632.6c-0.3,4.9-4.6,8.7-9.5,8.3c-4.9-0.3-8.7-4.6-8.3-9.5c0.3-4.9,4.6-8.7,9.5-8.3
						C731,623.4,734.7,627.7,734.3,632.6z"/>
					<path class="st14" d="M804.8,604.8c-0.3,4.9-4.6,8.7-9.5,8.3c-4.9-0.3-8.7-4.6-8.3-9.5c0.3-4.9,4.6-8.7,9.5-8.3
						C801.4,595.6,805.2,599.8,804.8,604.8z"/>
					<path class="st14" d="M769.2,578.2c-0.3,4.9-4.6,8.7-9.5,8.3c-4.9-0.3-8.7-4.6-8.3-9.5c0.3-4.9,4.6-8.7,9.5-8.3
						C765.8,569.1,769.5,573.3,769.2,578.2z"/>
				</g>
			</g>
		</g>
	</g>
	<g>
		<g class="st15">
			<path class="st1" d="M1059.9,419.6h-563v-47.7c0-10.8,8.7-19.5,19.5-19.5h523.9c10.8,0,19.5,8.7,19.5,19.5L1059.9,419.6z"/>
			<g>
				<path class="st1" d="M1061.2,420.9H495.6v-49.1c0-11.5,9.4-20.9,20.9-20.9h523.9c11.5,0,20.9,9.4,20.9,20.9L1061.2,420.9
					L1061.2,420.9z M498.3,418.2h560.3v-46.4c0-10-8.2-18.2-18.2-18.2H516.5c-10,0-18.2,8.2-18.2,18.2L498.3,418.2L498.3,418.2z"/>
			</g>
		</g>
		<g>
			<path class="st7" d="M604.5,385.9c0-5.7,4.6-10.3,10.3-10.3s10.3,4.6,10.3,10.3s-4.6,10.3-10.3,10.3
				C609.2,396.3,604.5,391.6,604.5,385.9z"/>
			<path class="st7" d="M564.8,385.9c0-5.7,4.6-10.3,10.3-10.3s10.3,4.6,10.3,10.3s-4.6,10.3-10.3,10.3
				C569.4,396.3,564.8,391.6,564.8,385.9z"/>
			<path class="st7" d="M525,385.9c0-5.7,4.6-10.3,10.3-10.3s10.3,4.6,10.3,10.3c0,5.7-4.6,10.3-10.3,10.3
				C529.7,396.3,525,391.6,525,385.9z"/>
		</g>
		<polygon class="st7" points="1010.7,378.4 1015.8,373.3 1023.1,380.6 1030.4,373.3 1035.5,378.4 1028.2,385.7 1035.5,393 
			1030.4,398.1 1023.1,390.8 1015.8,398.1 1010.7,393 1018,385.7 		"/>
	</g>
	<g>
		<path class="st16" d="M1084.5,757.2c0,0,7.6-38.8,124.4,7.8l291.2,116.1c16,6.4,23.8,24.6,17.4,40.6l-51.3,128.6L1036,878.7
			L1084.5,757.2z"/>
		<g>
			<g>
				<defs>
					<polygon id="SVGID_3_" points="1049.4,863.4 1497.6,1042.2 1699.6,606.6 1227,418.1 					"/>
				</defs>
				<clipPath id="SVGID_4_">
					<use xlink:href="#SVGID_3_"  style="overflow:visible;"/>
				</clipPath>
				<g class="st17">
					<g>
						<path class="st18" d="M1635.6,703.1c-46.6,175.5-158.5,326.8-313.1,423.2c-62.1-43.3-124.1-86.6-186.2-130
							c102.9-65.2,186.9-154.7,245.6-259.5C1386.6,733.1,1528.7,611.2,1635.6,703.1z"/>
						<g>
							<path class="st10" d="M1322.5,1127.3l-0.4-0.3c-61.3-42.8-122.6-85.6-183.9-128.4l-3.3-2.3l1-0.7
								c101.6-64.4,186.4-154,245.3-259.2l0.2-0.2l0.6-0.5c25-20.6,154.5-118.9,254.2-33.2l0.4,0.3l-0.1,0.5
								c-46.9,176.4-158.2,326.9-313.5,423.7L1322.5,1127.3z M1137.8,996.3l1.3,0.9c61.2,42.7,122.3,85.4,183.5,128.1
								c154.6-96.5,265.4-246.3,312.2-421.9c-98.7-84.2-226.9,13.2-251.7,33.6l-0.5,0.4C1323.7,842.3,1239.1,931.9,1137.8,996.3z"/>
						</g>
					</g>
					<path class="st7" d="M1406.7,736.4c-56.2,99.5-147.7,196.1-242,260.3c52.7,36.8,105.5,78,158.3,114.8
						c144.1-92.8,248.1-229.5,294.4-394.1c-35.3-26.1-79.5-19.5-128.2-6.4l0,0C1441.8,737.4,1419.3,726.2,1406.7,736.4z
						 M1413.2,737.9c12.1-9,34.3-0.5,79.1-27l0,0c41.7,0.1,84.4-15.5,116.2,5.8c-45.8,158-147.2,289.8-285.5,380.4
						c-22.7-15.8-45.3-31.4-67.9-47.2c-25.5-17.8-51.1-36-76.6-53.8C1266.7,933.5,1356,838.6,1413.2,737.9z"/>
					<g>
						<g>
							<path class="st7" d="M1373.9,917.9c-27.9-27.8-34.4-66.8-15.5-92.5c10.5-14.3,27.3-22.7,47.2-23.7c20.1-1,41.1,5.7,58.9,18.8
								c4.2,3.1,8.2,6.5,11.9,10.2c27.9,27.8,34.4,66.8,15.5,92.5c-10.5,14.3-27.3,22.7-47.2,23.7c-20.1,1-41.1-5.7-59-18.8
								C1381.6,924.9,1377.6,921.5,1373.9,917.9z"/>
							<g>
								<path class="st19" d="M1477.9,829.3l-2.7,2.8c27.2,27.2,33.6,65,15.3,90c-10.1,13.8-26.4,21.9-45.8,22.9
									c-19.7,0.9-40.2-5.6-57.7-18.5c-4.1-3-8.1-6.4-11.7-10c-27.2-27.2-33.6-65-15.3-90c10.1-13.8,26.4-21.9,45.8-22.9
									c19.7-0.9,40.2,5.6,57.7,18.5c4.1,3,8.1,6.4,11.7,10L1477.9,829.3L1477.9,829.3z M1477.9,829.3c-3.7-3.7-7.7-7.2-12.1-10.4
									c-37.7-27.7-86.5-25.3-108.9,5.2c-19.8,27-12.4,67,15.6,95.1c3.7,3.7,7.7,7.2,12.1,10.4c37.7,27.7,86.5,25.3,108.9-5.2
									C1513.3,897.4,1505.9,857.3,1477.9,829.3L1477.9,829.3z"/>
							</g>
						</g>
						<g>
							<g>
								<path class="st18" d="M1411.4,835.1l5.1,7.6c-5.2,1.9-11.1,5.8-15.4,11.7c-5.4,7.3-4.8,15.4,1.1,19.7
									c5.7,4.2,12.2,2.7,20.9-2.7c11.9-7.5,21.4-10.5,30.4-3.9c8.6,6.3,10.6,17.2,5.2,27.8l10.4,7.7l-4.7,6.4l-10-7.4
									c-4.8,6.1-9.5,9.1-13.5,10.8l-4.9-7.6c2.8-1.3,8.2-3.8,13.1-10.4c5.8-8,3.3-14.5-0.9-17.5c-5.4-3.9-10.9-2.1-21.2,4.2
									c-12.2,7.5-21.5,8.9-30.7,2.1c-8.2-6-11.7-17.3-5.6-29.2l-10.8-7.9l4.8-6.5l10.4,7.7
									C1399.8,841.7,1406.2,836.8,1411.4,835.1z"/>
							</g>
						</g>
					</g>
					<g>
						<path class="st7" d="M1510.9,736.3c10.9,8,13.2,23.2,5.2,34c-8,10.9-23.2,13.2-34.1,5.2s-13.2-23.2-5.2-34.1
							C1484.8,730.7,1500.1,728.4,1510.9,736.3z"/>
						<g>
							<path class="st10" d="M1494.9,781.1c-4.7-0.3-9.3-1.9-13.2-4.8c-5.4-4-9-9.8-10-16.5c-1-6.6,0.6-13.3,4.6-18.7
								c8.2-11.2,24-13.6,35.2-5.4l0,0c5.4,4,9,9.8,10,16.5c1,6.6-0.6,13.3-4.6,18.7s-9.8,9-16.5,10
								C1498.5,781.1,1496.7,781.2,1494.9,781.1z M1498.1,732.5c-7.8-0.5-15.6,2.8-20.5,9.6c-3.7,5.1-5.2,11.3-4.3,17.5
								c1,6.2,4.3,11.7,9.3,15.4c5.1,3.7,11.3,5.2,17.5,4.3c6.2-1,11.7-4.3,15.4-9.4c3.7-5.1,5.2-11.3,4.3-17.5
								c-1-6.2-4.3-11.7-9.3-15.4l0,0C1506.7,734.2,1502.4,732.7,1498.1,732.5z"/>
						</g>
					</g>
					<path class="st7" d="M1350,955.8c10.9,8,13.2,23.2,5.2,34.1c-8,10.8-23.2,13.2-34.1,5.2s-13.2-23.2-5.2-34.1
						C1323.9,950.2,1339.1,947.9,1350,955.8z"/>
					<path class="st7" d="M1336.6,1056.8c10.9,7.9,13.2,23.2,5.3,34c-8,10.9-23.2,13.2-34.1,5.2c-10.8-8-13.2-23.2-5.2-34.1
						C1310.6,1051.2,1325.8,1048.9,1336.6,1056.8z"/>
					<path class="st7" d="M1599.2,699.3c10.9,8,13.2,23.2,5.2,34.1c-8,10.8-23.2,13.2-34.1,5.2s-13.2-23.2-5.2-34.1
						C1573.1,693.7,1588.3,691.3,1599.2,699.3z"/>
					<path class="st7" d="M1224.3,972.4c12.8,9.4,15.6,27.4,6.2,40.3c-9.4,12.8-26.3,11-39.1,1.6c-12.8-9.4-19.3-18.7-5.4-27.3
						C1199.5,978.6,1211.5,963,1224.3,972.4z"/>
					<g>
						<path class="st20" d="M1623.8,694c0,0-118.1,15.5-135.4,64.7c0,0-49.1-62.5-106.5-21.8C1401.2,717.8,1532.8,622.4,1623.8,694z
							"/>
						<g>
							<path class="st20" d="M1488.6,760.3l-0.9-1.2c-0.5-0.6-49.3-61.5-105.4-21.6l-1-1.2c10.6-10.4,49-38.8,94.4-55.6
								c41.1-15.2,100.3-25.4,148.6,12.6l1.5,1.2l-1.9,0.2c-1.2,0.2-117.8,16-134.8,64.1L1488.6,760.3z M1425.9,722.5
								c32.7,2.1,57.3,28.8,62.2,34.6c17.8-45.2,118-61.3,133.7-63.6c-81.5-62.1-196.7,9.2-231.6,37.3
								C1402.7,723.9,1414.7,721.8,1425.9,722.5z"/>
						</g>
					</g>
					<g>
						<path class="st19" d="M1601.8,680.2c-2.1,0.3-81.4,13-115.9,50.8c-17.4-18.2-43.2-27.1-69.2-20
							C1461.3,683,1537.9,649,1601.8,680.2z"/>
						<g>
							<path class="st19" d="M1485.9,732.2l-0.6-0.6c-18.2-19.1-43.8-26.5-68.4-19.8l-5.3,1.4l4.6-2.9
								c32.7-20.6,116.3-64.8,185.8-30.9l2.5,1.2l-2.7,0.3c-0.8,0.1-81,12.8-115.4,50.5L1485.9,732.2z M1439.3,707.9
								c17.2,1.1,33.6,8.7,46.6,21.9c31.5-33.8,99.2-47.5,113.2-50c-65.5-30.2-143.1,8.2-177.7,29.2
								C1427.4,707.9,1433.4,707.5,1439.3,707.9z"/>
						</g>
					</g>
					<g>
						<g>
							<g>
								<path class="st1" d="M1305.2,851.7c24.3,17.5,62.5,15.2,92.8-7.6c30.1-22.7,42.9-58.4,33.2-86.5l2.1-1.6l-10.1-13.4
									c-21.9-29.1-68.7-30.8-104.5-3.8s-47.1,72.4-25.3,101.5l9.4,13.2L1305.2,851.7z"/>
								<g>
									<path class="st1" d="M1338.4,863.9c-12.2-0.8-23.6-4.5-33.2-11.2l-2.5,1.9l-9.9-13.9c-22.1-29.4-10.7-75.5,25.4-102.7
										c17.5-13.2,38.1-20,58-19.3c20,0.8,36.9,9,47.7,23.3l10.6,14.1l-2.3,1.7c9.7,29-4.1,64.6-33.7,86.9
										C1380,858.7,1358.2,865.2,1338.4,863.9z M1305.2,850.7l0.5,0.4c24.6,17.7,62.4,14.6,91.8-7.6c29.2-22,42.7-57.2,32.9-85.6
										l-0.2-0.6l1.9-1.5l-9.6-12.7c-10.4-13.9-26.9-21.9-46.4-22.6c-19.6-0.7-39.8,6-57,18.9c-35.4,26.6-46.7,71.7-25.1,100.3
										l8.9,12.5L1305.2,850.7z"/>
								</g>
							</g>
							<g>
								<path class="st7" d="M1408.1,857.5c-35.8,27-83.3,25-105.2-4.1c-21.9-29.1-9.9-74.3,25.9-101.3s82.6-25.2,104.5,3.8
									C1455.2,785.1,1443.9,830.5,1408.1,857.5z"/>
								<path class="st10" d="M1348.3,877.1c-19.3-1.2-35.6-9.4-46-23.2c-21.9-29.1-10.2-75,26.1-102.3c36.1-27.2,83.5-25.4,105.6,4
									c10.7,14.2,14,32.8,9.2,52.2c-4.8,19.3-17.1,37.2-34.5,50.4c-17.4,13.1-38.2,19.9-58.3,19.1
									C1349.6,877.2,1348.9,877.2,1348.3,877.1z M1388.3,733.9c-19.3-1.2-40.6,5-59,18.8c-35.6,26.8-47.2,71.8-25.8,100.2
									c10.5,13.9,27.2,22,46.8,22.8c19.8,0.8,40.2-5.9,57.4-18.8l0,0c17.2-12.9,29.3-30.5,34-49.5c4.7-18.9,1.6-37-8.9-50.9
									C1422.3,742.6,1406.2,735.1,1388.3,733.9z"/>
							</g>
							<g>
								<path class="st1" d="M1401,848.1c-29.4,22.1-68.4,20.6-86.4-3.3c-18-23.9-8.1-61,21.3-83.2s67.9-20.7,85.8,3.1
									C1439.7,788.6,1430.4,825.9,1401,848.1z"/>
								<g>
									<path class="st1" d="M1351.8,864.4c-15.9-1-29.4-7.8-37.9-19.2c-8.8-11.7-11.4-27-7.3-43c4.1-15.8,14.3-30.5,28.7-41.4
										c29.8-22.4,68.8-20.9,87,3.3c8.8,11.8,11.5,27,7.6,43c-4,15.9-14.1,30.7-28.5,41.5s-31.4,16.4-48,15.8
										C1352.9,864.5,1352.4,864.5,1351.8,864.4z M1384.7,746.8c-15.8-1-33.3,4.1-48.3,15.4c-14.1,10.6-24.1,25-28.1,40.5
										s-1.5,30.2,7,41.5c8.5,11.4,22.1,17.9,38.3,18.6c16.2,0.6,32.9-4.8,47-15.4l0,0c14.1-10.6,24-25,27.8-40.6
										c3.9-15.5,1.3-30.3-7.3-41.6C1412.5,753.9,1399.3,747.8,1384.7,746.8z"/>
								</g>
							</g>
						</g>
					</g>
					<g>
						<path class="st18" d="M1426.2,980c1,6,37.2,189.6-95.4,237.6c-129.9-126.9-206.7-298.7-214.5-480.7
							c68.3-32.7,136.5-65.5,204.7-98.2C1327.2,760.2,1363.8,877.4,1426.2,980z"/>
						<g>
							<path class="st10" d="M1330.6,1218.5l-0.4-0.4c-130.6-127.6-206.9-298.5-214.8-481.3v-0.5l0.5-0.2
								c68.3-32.7,136.5-65.5,204.7-98.2l1.1-0.5l0.1,1.2c6.1,120.2,42.4,238.1,105.1,341l0.1,0.3l0.1,0.8
								c5.6,31.8,27.5,193-96.1,237.6L1330.6,1218.5z M1117.1,737.3c8,182,83.9,352.2,213.9,479.3
								c121.8-44.5,100.1-204.1,94.5-235.7l-0.1-0.7c-62.5-102.8-98.8-220.5-105.1-340.5C1252.5,672.3,1184.8,704.8,1117.1,737.3z"
								/>
						</g>
					</g>
					<path class="st7" d="M1306.7,663.2c-58,27.8-119.8,53.5-177.8,81.3c9.9,171.1,77.8,328.9,198.4,450.2
						c40.1-17.8,56.1-59.7,68.6-108.5l0,0c0.3-54.3,21.1-68.3,18.4-84.4C1355.3,903.9,1316.2,776.8,1306.7,663.2z M1300.4,675.4
						c11.2,107.5,49.9,232,109.4,331.3c1.9,14.9-16.4,30.1-15.4,82.2l0,0c-20.6,36.2-27.9,81.1-62.2,98.3
						c-115.1-117.6-180-270.7-190.8-435.7c24.9-12,49.6-24,74.5-35.9C1243.9,702.2,1272.4,688.9,1300.4,675.4z"/>
					<g>
						<g>
							<path class="st7" d="M1242.4,1014.3c-15.2-6.1-26.5-16.5-32.6-30.1c-7.3-16.2-6.4-34.9,2.6-52.8c9.1-18,25.2-32.9,45.4-42.1
								c23.5-10.6,49.1-11.8,70.2-3.4c15.2,6.1,26.5,16.5,32.6,30.1c7.3,16.2,6.4,34.9-2.6,52.8c-9.1,18-25.2,32.9-45.4,42.1
								C1289.1,1021.5,1263.5,1022.7,1242.4,1014.3z"/>
							<g>
								<path class="st21" d="M1328.7,884.2l-1.4,3.6c14.7,5.9,25.7,15.9,31.6,29.1c7,15.6,6.1,33.8-2.6,51.1
									c-8.9,17.6-24.6,32.2-44.5,41.2c-23,10.4-48,11.6-68.7,3.3c-14.7-5.9-25.6-15.9-31.6-29.1c-7.1-15.6-6.1-33.8,2.6-51.1
									c8.9-17.6,24.6-32.2,44.5-41.2c23-10.4,48-11.6,68.7-3.3L1328.7,884.2L1328.7,884.2z M1328.7,884.2
									c-20.7-8.3-47-7.8-71.8,3.4c-42.7,19.3-64.6,62.9-49,97.4c6.5,14.5,18.7,25.1,33.7,31.1c20.7,8.3,47,7.8,71.8-3.4
									c42.7-19.3,64.6-62.9,49-97.4C1355.8,900.8,1343.7,890.2,1328.7,884.2L1328.7,884.2z"/>
							</g>
						</g>
						<g>
							<g>
								<path class="st22" d="M1252.9,944.5c-0.3,3.1-0.7,9,2.7,16.5c4.1,9,11,10,15.6,7.9c6.1-2.7,7.2-8.4,6.8-20.5
									c-0.5-14.3,2.8-23.1,13.2-27.8c9.2-4.2,20.8-1.7,28.2,9.5l12.2-5.5l3.3,7.4l-11.8,5.3c2.9,6.8,4,14.8,2.9,20.2l-9.1,0.7
									c0.9-5.5,0.4-12.6-2.6-19.1c-3.7-8.3-11.1-11.7-17.7-8.7c-6.4,2.9-8.4,9.3-7.9,19.5c0.7,14-1.4,23.8-11.5,28.4
									c-9.7,4.4-20.2,0.8-26.8-9.2l-11.8,5.3l-3.3-7.3l11.3-5.1c-2.9-7.1-3.2-12.7-2.8-17L1252.9,944.5z"/>
								<g>
									<path class="st10" d="M1267.6,980.9c-6.6-0.4-12.9-4.2-17.5-10.7l-11.9,5.4l-3.9-8.7l11.4-5.1c-2.3-5.8-3.1-11.3-2.5-16.7
										l0.1-0.7l10.7-0.7l-0.1,0.9c-0.2,2.6-0.8,8.5,2.6,16.1c3.9,8.6,10.3,9.4,14.6,7.5c5.2-2.4,6.7-7,6.3-19.8
										c-0.6-15.4,3.5-23.9,13.7-28.5c8.6-3.9,20.7-2.5,28.8,9.2l12.3-5.5l4,8.8l-11.8,5.3c2.7,6.7,3.8,14.4,2.7,19.9l-0.1,0.6
										l-10.7,0.9l0.2-1c1-6.1,0.1-12.9-2.5-18.6c-1.7-3.9-4.3-6.7-7.4-8.2c-3-1.5-6.2-1.5-9.3-0.1c-5.7,2.6-7.9,8-7.5,18.7
										c0.6,12.1-0.4,24-12,29.2C1274.2,980.5,1270.9,981.1,1267.6,980.9z M1250.7,968.1l0.4,0.6c6.3,9.6,16.5,13.1,25.8,8.9
										c10.1-4.5,11.7-14.3,11-27.6c-0.5-11.3,2.1-17.4,8.4-20.3c3.5-1.6,7.3-1.5,10.7,0.1c3.4,1.7,6.2,4.8,8.2,9
										c2.6,5.7,3.6,12.4,2.8,18.5l7.5-0.6c0.9-5.4-0.3-12.8-3-19.1l-0.3-0.7l11.8-5.3l-2.7-5.9l-12,5.4l-0.4-0.6
										c-7.6-11.4-19.1-12.8-27.2-9.2c-9.6,4.3-13.3,12.1-12.7,27c0.4,12-0.6,18.3-7.3,21.3c-5.4,2.4-12.6,0.8-16.7-8.3
										c-3.2-7.1-3.1-12.9-2.8-16l-7.4,0.5c-0.4,5.1,0.5,10.4,2.8,15.9l0.3,0.7l-11.3,5.1l2.6,5.8L1250.7,968.1z"/>
								</g>
							</g>
						</g>
					</g>
					<path class="st7" d="M1375.3,1060.4c5.5,12.3,0.1,26.7-12.2,32.2c-12.3,5.5-26.7,0.1-32.2-12.2c-5.5-12.3-0.1-26.7,12.2-32.2
						C1355.3,1042.7,1369.8,1048.1,1375.3,1060.4z"/>
					<g>
						<path class="st7" d="M1263.3,812.3c5.5,12.3,0.1,26.7-12.2,32.2c-12.3,5.5-26.7,0.1-32.2-12.2s-0.1-26.7,12.2-32.2
							S1257.8,800,1263.3,812.3z"/>
						<g>
							<path class="st10" d="M1239.5,847.4c-2.5-0.2-4.9-0.7-7.3-1.6c-6.3-2.4-11.3-7.1-14-13.2c-2.8-6.1-3-13-0.6-19.3
								s7.1-11.3,13.2-14c6.1-2.8,13-3,19.3-0.6s11.3,7.1,14,13.2l0,0c2.8,6.1,3,13,0.6,19.3s-7.1,11.3-13.2,14
								C1247.7,847,1243.6,847.7,1239.5,847.4z M1242.6,798.8c-3.8-0.2-7.6,0.4-11.2,2.1c-11.8,5.3-17.1,19.3-11.8,31.2
								c2.6,5.7,7.3,10.1,13.1,12.3c5.9,2.2,12.3,2,18-0.6s10.1-7.2,12.3-13.1c2.2-5.9,2-12.3-0.6-18l0,0
								c-2.6-5.7-7.3-10.1-13.1-12.3C1247.2,799.4,1244.9,798.9,1242.6,798.8z"/>
						</g>
					</g>
					<path class="st7" d="M1181.9,751c5.5,12.3,0.1,26.7-12.2,32.2c-12.3,5.5-26.7,0.1-32.2-12.2s-0.1-26.7,12.2-32.2
						C1162,733.3,1176.4,738.8,1181.9,751z"/>
					<path class="st7" d="M1364.2,1155.4c5.5,12.3,0.1,26.7-12.2,32.2c-12.3,5.5-26.7,0.1-32.2-12.2c-5.5-12.3-0.1-26.7,12.2-32.2
						C1344.2,1137.7,1358.6,1143.2,1364.2,1155.4z"/>
					<path class="st7" d="M1304.7,686.4c0.6,15.9,8.4,34-6.2,40.5c-14.5,6.5-31.6,0.1-38.1-14.4s3.4-28.3,17.9-34.8
						C1292.8,671.2,1304,670.2,1304.7,686.4z"/>
					<path class="st7" d="M1426.1,980c7,26.2,25.4,187.7-81.6,231.7c0,0,44.6-110.4,10.3-149.7C1354.8,1062,1433.4,1050,1426.1,980z
						"/>
					<path class="st23" d="M1431.5,1023.1c2.5,52.6-5.6,136-64.2,176.3c0.8-2,28.7-77.3,12.8-125.9
						C1404.5,1067.3,1424.9,1049.2,1431.5,1023.1z"/>
				</g>
			</g>
		</g>
		<g>
			<g>
				<g>
					<path class="st1" d="M1450.2,971.9c-19.8-18.6-24.5-53-9.5-84.1c14.9-30.8,44.6-48.5,71.3-44.7l1-2.2l13.7,6.6
						c29.8,14.4,39.5,55.8,21.7,92.5s-56.3,54.7-86.1,40.3l-13.4-6.1L1450.2,971.9z"/>
					<g>
						<path class="st1" d="M1481,985.9c-6.5-0.4-12.8-2-18.8-4.9l-14.1-6.4l1.2-2.6c-20.2-19.3-24-54-9.2-84.6
							c14.7-30.2,44-48.8,71.5-45.2l1.1-2.4l14.4,7c30.1,14.6,40,56.5,22.1,93.5C1534.9,970,1507,987.6,1481,985.9z M1450.1,973.9
							l12.7,5.7c29.4,14.2,67.5-3.7,85.1-39.9s8-77.3-21.3-91.5l-13-6.3l-1,2l-0.5-0.1c-27-3.7-56,14.4-70.5,44.3
							c-14.6,30.2-10.8,64.4,9.3,83.2l0.4,0.4L1450.1,973.9z"/>
					</g>
				</g>
				<g>
					<path class="st7" d="M1427.1,881.2c-17.8,36.7-7.7,78.7,22,93.1c29.8,14.4,68-4.2,85.7-40.8c17.8-36.7,8-78.1-21.7-92.5
						C1483.4,826.5,1444.8,844.5,1427.1,881.2z"/>
					<path class="st10" d="M1467.2,979.6c-6.3-0.4-12.5-2-18.4-4.8c-14.6-7.1-25-20.8-29.2-38.7c-4.2-17.8-1.8-37.5,6.9-55.3l0,0
						c8.7-17.9,22.5-31.9,38.9-39.6c16.4-7.7,33.5-8,48.1-1c30,14.6,39.9,56.5,22,93.4C1521,963.5,1493,981.3,1467.2,979.6z
						 M1494.4,836.7c-9.3-0.6-19,1.3-28.6,5.8c-16.1,7.5-29.7,21.4-38.2,39l0,0c-8.5,17.6-10.9,36.9-6.8,54.4s14.3,30.9,28.5,37.8
						c29.1,14.1,67.2-4.1,84.8-40.5c17.6-36.3,8-77.4-21.4-91.6C1507,838.7,1500.8,837.1,1494.4,836.7z"/>
				</g>
				<g>
					<path class="st1" d="M1436.7,885.8c-14.6,30.1-6.3,64.6,18.1,76.4c24.4,11.9,55.8-3.4,70.4-33.5s6.6-64.1-17.8-76
						C1482.9,840.9,1451.3,855.7,1436.7,885.8z"/>
					<g>
						<path class="st1" d="M1469.8,967c-5.3-0.3-10.5-1.7-15.3-4c-12-5.8-20.6-17.2-24.1-31.9s-1.5-30.9,5.6-45.6
							c7.1-14.7,18.5-26.3,32-32.6c13.6-6.3,27.7-6.6,39.7-0.8c24.8,12,32.9,46.5,18.2,77c-7.2,14.8-18.5,26.4-31.9,32.9
							C1485.9,965.8,1477.7,967.5,1469.8,967z M1492,849.5c-7.6-0.5-15.6,1.1-23.4,4.7c-13.2,6.2-24.3,17.5-31.3,31.9
							s-8.9,30.2-5.5,44.6c3.4,14.3,11.7,25.2,23.3,30.9c11.6,5.6,25.1,5.2,38.2-1c13.1-6.3,24.1-17.7,31.2-32.2
							c14.4-29.7,6.6-63.3-17.5-75C1502.3,851.2,1497.2,849.9,1492,849.5z"/>
					</g>
				</g>
			</g>
		</g>
		<g>
			<g>
				<g>
					<path class="st1" d="M1122.4,835.1c-13.4-29.9-2.5-70.4,28.7-97.8c31-27.3,72.1-33,100.1-16.4l2.2-1.9l12.1,13.8
						c26.3,29.9,17.8,80.5-19.1,112.9s-88.1,34.5-114.4,4.6l-12-13L1122.4,835.1z"/>
					<g>
						<path class="st1" d="M1176.9,872.1c-17.8-1.1-34-8.2-45.5-21.3l-12.7-13.7l2.6-2.3c-13.4-30.9-1.5-71.2,29.3-98.3
							c30.4-26.8,71.7-33.6,100.6-16.9l2.4-2.1l12.7,14.5c12.9,14.7,18,34.7,14.4,56.3c-3.6,21.5-15.5,42.1-33.5,57.9
							C1226,864.9,1200.2,873.6,1176.9,872.1z M1121.4,837.3l11.4,12.3c26,29.5,76.7,27.4,113.2-4.6c17.7-15.6,29.4-35.7,32.9-56.9
							c3.6-21-1.4-40.5-13.9-54.8l-11.5-13.1l-2,1.8l-0.6-0.3c-28.3-16.8-69-10.1-99,16.3c-30.3,26.7-42,66.5-28.5,96.8l0.3,0.6
							L1121.4,837.3z"/>
					</g>
				</g>
				<g>
					<path class="st7" d="M1139,723.5c-36.9,32.4-45.3,83.8-19,113.7s77.5,27.1,114.3-5.4c36.9-32.4,45.4-83,19.1-112.9
						C1227.1,689,1175.9,691.1,1139,723.5z"/>
					<path class="st10" d="M1164.1,858.6c-17.5-1.1-33.4-8-44.7-20.8c-12.9-14.7-18-34.8-14.4-56.6s15.5-42.5,33.5-58.3l0,0l0,0
						c18-15.8,39.9-25,61.7-25.9c21.9-0.9,41,6.7,53.9,21.4c26.6,30.2,18,81.4-19.2,114.1C1213.6,851.2,1187.5,860.1,1164.1,858.6z
						 M1208.6,698.7c-2.7-0.2-5.5-0.2-8.4-0.1c-21.4,0.9-43,9.9-60.7,25.5l0,0c-17.7,15.6-29.4,35.9-32.9,57.3
						c-3.5,21.3,1.4,40.9,14,55.2c25.8,29.3,76.5,26.8,113.2-5.4c36.5-32.1,45-82.2,19-111.8
						C1241.9,707.1,1226.4,699.9,1208.6,698.7z"/>
				</g>
				<g>
					<path class="st1" d="M1147.5,733.2c-30.3,26.6-37.2,68.8-15.6,93.4c21.6,24.6,63.6,22.3,93.9-4.4
						c30.3-26.6,37.3-68.2,15.7-92.7C1219.9,704.9,1177.8,706.5,1147.5,733.2z"/>
					<g>
						<path class="st1" d="M1168.1,844.5c-14.8-0.9-27.7-6.9-36.8-17.3c-10.7-12.1-14.9-28.7-11.9-46.7c3-17.9,12.8-35,27.6-48
							c14.8-13,32.8-20.6,50.8-21.3s33.8,5.6,44.5,17.6c21.9,24.9,14.9,67.1-15.8,94c-14.8,13.1-32.9,20.7-50.8,21.6
							C1173.1,844.7,1170.5,844.6,1168.1,844.5z M1148.1,733.9c-14.5,12.7-24,29.4-27,46.9c-2.9,17.4,1.2,33.5,11.5,45.2
							c10.2,11.6,25.5,17.6,43,16.7c17.5-0.9,35.1-8.4,49.6-21.2c29.9-26.3,36.8-67.3,15.6-91.5c-10.3-11.7-25.5-17.7-43-17
							C1180.2,713.7,1162.6,721.1,1148.1,733.9L1148.1,733.9z"/>
					</g>
				</g>
			</g>
		</g>
		<g>
			<path class="st1" d="M1530.4,947.4l-414.2-165.2c-16.7-7.9-35.3-19.9-30.2-32.6l-7.1,17.7l-22.2,55.6l-125.1,313.7
				c-9,22.5,2,48,24.5,57l410.7,163.8c18.6,7.4,39.7-1.6,47.1-20.3l136.7-342.7C1558.1,976,1549,954.9,1530.4,947.4z"/>
			<g>
				<path class="st7" d="M1377.9,1361.2c-3.9-0.2-7.8-1.1-11.5-2.6l-410.7-163.8c-23-9.2-34.3-35.4-25.1-58.5l154.4-387l2.1,0.8l0,0
					c-4.7,11.9,13.5,23.5,29.6,31.1l414.1,165.2c19.1,7.6,28.5,29.4,20.9,48.6L1415,1337.7c-3.7,9.3-10.8,16.6-20,20.5
					C1389.5,1360.6,1383.7,1361.6,1377.9,1361.2z M1084.4,756.7l-151.7,380.4c-8.7,21.9,2,46.8,23.9,55.6l410.7,163.8
					c8.7,3.5,18.3,3.4,26.9-0.4c8.6-3.7,15.3-10.6,18.8-19.3l136.7-342.7c7.2-18-1.6-38.5-19.6-45.7l-414.3-165.1
					C1096.9,774.4,1086.3,765.3,1084.4,756.7z"/>
			</g>
		</g>
		<g>
			<g>
				<path class="st7" d="M1084.2,792.6c-0.5,0-1-0.2-1.4-0.6c-6.3-5.4-6.6-8.7-6.4-9.9c0.2-1.3,1.4-2.2,2.8-2.1
					c1.2,0.2,2.1,1.3,2.1,2.5c0.1,0.3,0.6,2.2,4.8,5.8c1,0.9,1.1,2.4,0.3,3.4C1085.7,792.3,1085,792.6,1084.2,792.6z M1081.2,782.8
					L1081.2,782.8L1081.2,782.8z M1081.2,782.8L1081.2,782.8L1081.2,782.8z M1081.2,782.8L1081.2,782.8L1081.2,782.8z"/>
			</g>
			<g>
				<path class="st7" d="M1363.6,1330.9c-0.1,0-0.2,0-0.3,0c-2.1-0.4-4.2-1-6.2-1.8l-12.5-5c-1.2-0.5-1.9-1.9-1.4-3.2
					c0.5-1.2,1.9-1.9,3.2-1.4l12.5,5c1.7,0.7,3.5,1.2,5.3,1.6c1.3,0.3,2.2,1.5,1.9,2.9C1365.9,1330.1,1364.8,1331,1363.6,1330.9z
					 M1382.6,1328.6c-0.9-0.1-1.7-0.6-2.1-1.4c-0.6-1.2,0-2.7,1.2-3.2c5.5-2.5,10.1-6.6,13.1-11.8c0.7-1.2,2.2-1.6,3.3-0.9
					c1.2,0.7,1.6,2.2,0.9,3.3c-3.6,6.1-8.9,10.9-15.3,13.8C1383.4,1328.6,1383,1328.7,1382.6,1328.6z M1327.3,1317
					c-0.3,0-0.5-0.1-0.7-0.2l-18.1-7.2c-1.2-0.5-1.9-1.9-1.4-3.2c0.5-1.2,1.9-1.9,3.2-1.4l18.1,7.2c1.2,0.5,1.9,1.9,1.4,3.2
					C1329.3,1316.5,1328.3,1317.1,1327.3,1317z M1291.2,1302.6c-0.3,0-0.5-0.1-0.7-0.2l-18.1-7.2c-1.2-0.5-1.9-1.9-1.4-3.2
					c0.5-1.2,1.9-1.9,3.2-1.4l18.1,7.2c1.2,0.5,1.9,1.9,1.4,3.2C1293.2,1302,1292.2,1302.6,1291.2,1302.6z M1404.4,1297.9
					c-0.3,0-0.5-0.1-0.7-0.2c-1.2-0.5-1.9-1.9-1.4-3.2l7.2-18.1c0.5-1.2,1.9-1.9,3.2-1.4c1.2,0.5,1.9,1.9,1.4,3.2l-7.2,18.1
					C1406.4,1297.3,1405.4,1297.9,1404.4,1297.9z M1255,1288.2c-0.3,0-0.5-0.1-0.7-0.2l-18.1-7.2c-1.2-0.5-1.9-1.9-1.4-3.2
					c0.5-1.3,1.9-1.9,3.2-1.4l18.1,7.2c1.2,0.5,1.9,1.9,1.4,3.2C1257,1287.6,1256,1288.2,1255,1288.2z M1218.9,1273.7
					c-0.3,0-0.5-0.1-0.7-0.2l-18.1-7.2c-1.2-0.5-1.9-1.9-1.4-3.2c0.5-1.2,1.9-1.9,3.2-1.4l18.1,7.2c1.2,0.5,1.9,1.9,1.4,3.2
					C1220.9,1273.2,1219.9,1273.8,1218.9,1273.7z M1182.7,1259.3c-0.3,0-0.5-0.1-0.7-0.2l-18.1-7.2c-1.2-0.5-1.9-1.9-1.4-3.2
					c0.5-1.2,1.9-1.9,3.2-1.4l18.1,7.2c1.2,0.5,1.9,1.9,1.4,3.2C1184.8,1258.8,1183.8,1259.4,1182.7,1259.3z M1146.6,1244.9
					c-0.3,0-0.5-0.1-0.7-0.2l-18.1-7.2c-1.2-0.5-1.9-1.9-1.4-3.2c0.5-1.3,1.9-1.9,3.2-1.4l18.1,7.2c1.2,0.5,1.9,1.9,1.4,3.2
					C1148.6,1244.4,1147.6,1245,1146.6,1244.9z M1418.8,1261.7c-0.3,0-0.5-0.1-0.7-0.2c-1.2-0.5-1.9-1.9-1.4-3.2l7.2-18.1
					c0.5-1.2,1.9-1.9,3.2-1.4c1.2,0.5,1.9,1.9,1.4,3.2l-7.2,18.1C1420.8,1261.2,1419.8,1261.8,1418.8,1261.7z M1110.5,1230.5
					c-0.3,0-0.5-0.1-0.7-0.2l-18.1-7.2c-1.2-0.5-1.9-1.9-1.4-3.2c0.5-1.2,1.9-1.9,3.2-1.4l18.1,7.2c1.2,0.5,1.9,1.9,1.4,3.2
					C1112.5,1230,1111.5,1230.6,1110.5,1230.5z M1074.3,1216.1c-0.3,0-0.5-0.1-0.7-0.2l-18.1-7.2c-1.2-0.5-1.9-1.9-1.4-3.2
					c0.5-1.2,1.9-1.9,3.2-1.4l18.1,7.2c1.2,0.5,1.9,1.9,1.4,3.2C1076.3,1215.6,1075.3,1216.1,1074.3,1216.1z M1038.2,1201.7
					c-0.3,0-0.5-0.1-0.7-0.2l-18.1-7.2c-1.2-0.5-1.9-1.9-1.4-3.2c0.5-1.2,1.9-1.9,3.2-1.4l18.1,7.2c1.2,0.5,1.9,1.9,1.4,3.2
					C1040.2,1201.1,1039.2,1201.7,1038.2,1201.7z M1433.2,1225.6c-0.2,0-0.5-0.1-0.7-0.2c-1.2-0.5-1.9-1.9-1.4-3.2l7.2-18.1
					c0.5-1.2,1.9-1.9,3.2-1.4c1.2,0.5,1.9,1.9,1.4,3.2l-7.2,18.1C1435.2,1225.1,1434.2,1225.7,1433.2,1225.6z M1002,1187.3
					c-0.3,0-0.5-0.1-0.7-0.2l-18.1-7.2c-1.2-0.5-1.9-1.9-1.4-3.2c0.5-1.2,1.9-1.9,3.2-1.4l18.1,7.2c1.2,0.5,1.9,1.9,1.4,3.2
					C1004,1186.7,1003,1187.3,1002,1187.3z M966,1172.5c-0.3,0-0.6-0.1-0.9-0.3c-4.5-2.3-10.9-6.1-16.6-11.4c-1-0.9-1-2.5-0.1-3.4
					c0.9-1,2.5-1,3.4-0.1c5.2,4.9,11.3,8.5,15.4,10.6c1.2,0.6,1.7,2.1,1.1,3.3C967.9,1172.1,966.9,1172.6,966,1172.5z
					 M1447.6,1189.4c-0.3,0-0.5-0.1-0.7-0.2c-1.2-0.5-1.9-1.9-1.4-3.2l7.2-18.1c0.5-1.2,1.9-1.9,3.2-1.4c1.2,0.5,1.9,1.9,1.4,3.2
					l-7.2,18.1C1449.6,1188.9,1448.6,1189.5,1447.6,1189.4z M1462,1153.3c-0.3,0-0.5-0.1-0.7-0.2c-1.2-0.5-1.9-1.9-1.4-3.2l7.2-18.1
					c0.5-1.2,1.9-1.9,3.2-1.4c1.2,0.5,1.9,1.9,1.4,3.2l-7.2,18.1C1464.1,1152.8,1463.1,1153.4,1462,1153.3z M1476.5,1117.2
					c-0.3,0-0.5-0.1-0.7-0.2c-1.2-0.5-1.9-1.9-1.4-3.2l7.2-18.1c0.5-1.2,1.9-1.9,3.2-1.4c1.2,0.5,1.9,1.9,1.4,3.2l-7.2,18.1
					C1478.5,1116.6,1477.5,1117.2,1476.5,1117.2z M1490.9,1081c-0.3,0-0.5-0.1-0.7-0.2c-1.2-0.5-1.9-1.9-1.4-3.2l7.2-18.1
					c0.5-1.2,1.9-1.9,3.2-1.4c1.2,0.5,1.9,1.9,1.4,3.2l-7.2,18.1C1492.9,1080.5,1491.9,1081.1,1490.9,1081z M1505.3,1044.9
					c-0.2,0-0.5-0.1-0.7-0.2c-1.2-0.5-1.9-1.9-1.4-3.2l7.2-18.1c0.5-1.2,1.9-1.9,3.2-1.4c1.2,0.5,1.9,1.9,1.4,3.2l-7.2,18.1
					C1507.3,1044.4,1506.3,1044.9,1505.3,1044.9z M1519.7,1008.7c-0.3,0-0.5-0.1-0.7-0.2c-1.2-0.5-1.9-1.9-1.4-3.2l1-2.6
					c1.1-2.9,1.8-5.9,2-8.9c0.1-2,0-4.1-0.3-6.1c-0.2-1.3,0.7-2.6,2-2.8s2.6,0.7,2.8,2c0.4,2.4,0.5,4.8,0.3,7.2
					c-0.2,3.6-1,7.1-2.4,10.4l-1,2.6C1521.7,1008.2,1520.7,1008.8,1519.7,1008.7z M1514.2,972.6c-0.6,0-1.2-0.3-1.6-0.7
					c-2.9-3-6.3-5.3-10.3-6.9l-5.5-2.2c-1.2-0.5-1.9-1.9-1.4-3.2s1.9-1.9,3.2-1.4l5.5,2.2c4.6,1.8,8.6,4.5,12,8.1
					c0.9,1,0.9,2.5-0.1,3.4C1515.5,972.4,1514.9,972.6,1514.2,972.6z M1479.5,955.7c-0.3,0-0.5-0.1-0.7-0.2l-18.1-7.2
					c-1.2-0.5-1.9-1.9-1.4-3.2c0.5-1.2,1.9-1.9,3.2-1.4l18.1,7.2c1.2,0.5,1.9,1.9,1.4,3.2C1481.5,955.2,1480.5,955.8,1479.5,955.7z
					 M1443.4,941.3c-0.3,0-0.5-0.1-0.7-0.2l-18.1-7.2c-1.2-0.5-1.9-1.9-1.4-3.2c0.5-1.2,1.9-1.9,3.2-1.4l18.1,7.2
					c1.2,0.5,1.9,1.9,1.4,3.2C1445.4,940.8,1444.4,941.3,1443.4,941.3z M1407.2,926.9c-0.3,0-0.5-0.1-0.7-0.2l-18.1-7.2
					c-1.2-0.5-1.9-1.9-1.4-3.2c0.5-1.2,1.9-1.9,3.2-1.4l18.1,7.2c1.2,0.5,1.9,1.9,1.4,3.2C1409.2,926.3,1408.2,926.9,1407.2,926.9z
					 M1371.1,912.5c-0.3,0-0.5-0.1-0.7-0.2l-18.1-7.2c-1.2-0.5-1.9-1.9-1.4-3.2c0.5-1.2,1.9-1.9,3.2-1.4l18.1,7.2
					c1.2,0.5,1.9,1.9,1.4,3.2C1373.1,911.9,1372.1,912.5,1371.1,912.5z M1334.9,898c-0.2,0-0.5-0.1-0.7-0.2l-18.1-7.2
					c-1.2-0.5-1.9-1.9-1.4-3.2c0.5-1.2,1.9-1.9,3.2-1.4l18.1,7.2c1.2,0.5,1.9,1.9,1.4,3.2C1336.9,897.5,1336,898.1,1334.9,898z
					 M1298.8,883.6c-0.3,0-0.5-0.1-0.7-0.2l-18.1-7.2c-1.2-0.5-1.9-1.9-1.4-3.2c0.5-1.2,1.9-1.9,3.2-1.4l18.1,7.2
					c1.2,0.5,1.9,1.9,1.4,3.2C1300.8,883.1,1299.8,883.7,1298.8,883.6z M1262.6,869.2c-0.3,0-0.5-0.1-0.7-0.2l-18.1-7.2
					c-1.2-0.5-1.9-1.9-1.4-3.2c0.5-1.2,1.9-1.9,3.2-1.4l18.1,7.2c1.2,0.5,1.9,1.9,1.4,3.2C1264.7,868.7,1263.7,869.3,1262.6,869.2z
					 M1226.5,854.8c-0.3,0-0.5-0.1-0.7-0.2l-18.1-7.2c-1.2-0.5-1.9-1.9-1.4-3.2c0.5-1.2,1.9-1.9,3.2-1.4l18.1,7.2
					c1.2,0.5,1.9,1.9,1.4,3.2C1228.5,854.3,1227.5,854.9,1226.5,854.8z M1190.4,840.4c-0.2,0-0.5-0.1-0.7-0.2l-18.1-7.2
					c-1.2-0.5-1.9-1.9-1.4-3.2c0.5-1.2,1.9-1.9,3.2-1.4l18.1,7.2c1.2,0.5,1.9,1.9,1.4,3.2C1192.4,839.9,1191.4,840.4,1190.4,840.4z
					 M1154.2,826c-0.3,0-0.5-0.1-0.7-0.2l-18.1-7.2c-1.2-0.5-1.9-1.9-1.4-3.2c0.5-1.2,1.9-1.9,3.2-1.4l18.1,7.2
					c1.2,0.5,1.9,1.9,1.4,3.2C1156.2,825.4,1155.2,826,1154.2,826z M1118.1,811.4c-0.3,0-0.5-0.1-0.8-0.2
					c-6.7-2.9-12.6-5.7-17.8-8.4c-1.2-0.6-1.6-2.1-1-3.3s2.1-1.6,3.3-1c5,2.7,10.9,5.4,17.4,8.2c1.2,0.5,1.8,2,1.3,3.2
					C1120.1,810.9,1119.1,811.5,1118.1,811.4z"/>
			</g>
			<g>
				<path class="st7" d="M939.5,1145.4c-1-0.1-1.9-0.8-2.2-1.8c-0.9-3.4-1.3-7-0.9-10.5c0.1-1.3,1.3-2.4,2.6-2.2
					c1.3,0.1,2.3,1.3,2.2,2.6c-0.3,3,0,5.9,0.8,8.8c0.4,1.3-0.4,2.6-1.7,3C940.1,1145.4,939.8,1145.4,939.5,1145.4z"/>
			</g>
		</g>
		<path class="st24" d="M1433.3,1161.5c-4.9,12.2-18.7,18.2-30.9,13.3c-12.2-4.9-18.2-18.7-13.3-30.9c4.9-12.2,18.7-18.2,30.9-13.3
			C1432.3,1135.5,1438.2,1149.3,1433.3,1161.5z"/>
		<polygon class="st25" points="1033,1225.9 977.8,1202.4 991.7,984.7 1059.2,816.5 		"/>
		<polygon class="st25" points="1389.6,1395 1069.8,1239.1 1281.4,1251.2 1445.5,1261.6 		"/>
	</g>
	<g>
		<g>
			<path class="st7" d="M1248.1,1387.7c0.2-5.4,31.8-24.1,33.4-22.6c4.9,4.8,21.5,24.5,20.7,29.3c-0.8,4.7-17.3,31.3-21.7,26.5
				C1276.6,1416.7,1247.9,1392.9,1248.1,1387.7z"/>
			<g>
				<path class="st10" d="M1279.5,1421.7c-1-1.1-3.8-3.6-7.4-6.8c-16.5-14.8-25.4-23.5-25.3-27.2l0,0c0.2-5.9,25.7-20.8,31.9-23.3
					c1.7-0.7,2.9-0.9,3.7-0.2c3.2,3.1,22.1,24.4,21.1,30.4c-0.8,4.6-13.8,25.9-20.5,27.9c-0.4,0.1-0.8,0.2-1.1,0.2
					C1280.9,1422.7,1280.1,1422.4,1279.5,1421.7z M1249.3,1387.7L1249.3,1387.7c-0.1,3.2,17.1,18.7,24.4,25.3c3.6,3.3,6.5,5.8,7.6,7
					c0.1,0.1,0.2,0.3,0.8,0.1c5.6-1.7,18.1-22.2,18.7-25.9c0.6-3.7-13.8-21.7-20-27.9C1276,1367,1249.5,1383.9,1249.3,1387.7z"/>
			</g>
		</g>
		<path class="st1" d="M1299.6,1386.6c0,0,27.9,9.5,29.4,31.9c0,0-57.2,42.3-81.1,54.7c0,0-27.3-9.3-10.6-25
			c16.7-15.7,31.9-31.9,31.9-31.9S1296.9,1410.8,1299.6,1386.6z"/>
		<g>
			<path class="st7" d="M947.8,1387c4-3.6,39.5,5.6,39.5,7.9c0,6.8-2.9,36.2-6.8,39c-3.9,2.7-38.2,8.3-37.9,1.7
				C942.8,1429.9,943.9,1390.5,947.8,1387z"/>
			<g>
				<path class="st10" d="M943.2,1438.5c-1.8-1-2-2.3-1.9-3c0-0.7,0.1-1.8,0.1-3.3c1.2-29.9,2.8-43.7,5.5-46.1l0,0
					c4.4-4,32.9,3.7,38.9,6.3c1.7,0.7,2.7,1.4,2.7,2.5c0,5.4-2.5,36.6-7.4,40c-2.5,1.8-18.5,5-29.3,5
					C948.1,1439.9,945,1439.5,943.2,1438.5z M948.6,1388L948.6,1388c-1.4,1.2-3.3,10-4.7,44.4c-0.1,1.5-0.1,2.6-0.1,3.3
					c0,0.1,0,0.3,0.6,0.7c5.7,3.1,32-1.1,35.3-3.5c3.1-2.2,6.2-28.7,6.3-37.5C982.1,1392.4,951.4,1385.4,948.6,1388z"/>
			</g>
		</g>
		<path class="st1" d="M985.7,1425.4c0,0,17.3,23.8,5.6,43c0,0-71.1,1.6-97.8-2c0,0-17-23.3,5.7-26.5s44.5-7.8,44.5-7.8
			S969.5,1443.6,985.7,1425.4z"/>
		<path class="st12" d="M936.3,1396.6l25.2,2.6l33.3,3.4l0.1-0.1c0-0.2,0.2-0.5,0.3-0.8c0,0,0-0.1,0.2-0.2c2.9-6.5-0.3-61-0.6-106.3
			c-0.3-56.4,24.3-135.8,28.3-191.1c0.4-4.6,0.7-8.9,1.1-12.9c2.2-27.8,24.2-81.4,42.1-127.3c2.6-6.7,5.1-13.2,7.4-19.5
			c11.6-30.9,19.4-55.4,14.5-60.9c-12.7-14.5-84.6-120.1-127.9-71.4c-49.5,55.9-57.7,201.8-57.7,280.4
			C902.6,1171,923.7,1317.9,936.3,1396.6z"/>
		<g>
			<path class="st11" d="M961.5,1399.1l33.3,3.4l0.1-0.1c0-0.2,0.2-0.5,0.3-0.8c0,0,0-0.1,0.2-0.2c3.5-5.9,1.5-42.1,9.1-112.5
				c6-56.1,13.9-129.5,18.7-184.9c0.4-4.6,0.7-8.9,1.1-12.9c2.2-27.8,24.2-81.4,42.1-127.3c2.6-6.7,5.1-13.2,7.4-19.5
				c-0.4-0.3-0.9-0.6-1.3-0.9c-1.3-0.9-2.7-0.8-4-0.3c-11.1-14.8-35-29.3-47.7-7.8c-7.1,12.1,1,26.3,1.7,38.8
				c1.6,25.3-14.4,47.9-24.3,70c-35.1,78.8-6.6,165.7-16.2,248.1C977,1335.4,958.2,1355.1,961.5,1399.1z"/>
		</g>
		<path class="st12" d="M1073.8,1146.2c8.9,78.2,124.8,221.7,184.7,256.3c0,0,38-23.1,36.5-27.2c-9.6-26.1-34.9-56.9-50.5-107.1
			c-27.7-89.6-52.9-117.4-53.2-169.3c-0.6-104.5,26-156.6-0.2-233.2c-1.8-5.4-3.9-10.8-6.2-16.4c-5.5-13.3-29.1-34.9-38.2-50.1
			c-1.3-2.2-78.6,9.6-106.6,39.6C1037.1,842.1,1060.1,1024.8,1073.8,1146.2z"/>
		<g>
			<path class="st11" d="M1173.6,1062.2c-0.4,5.3-0.7,10.6-0.9,15.9c-0.9,51.6,16.9,94.5,40.1,139.6
				c23.3,45.5,58.4,165.5,66.1,171.7c8.6-4.5,17.6-10,16.2-14.1c-9.6-26.1-103.4-224.5-103.7-276.4c-0.6-104.5,26-156.6-0.2-233.2
				c-10.4,11-13.5,37.8-14.8,48.5C1170.2,963.3,1169.6,1012.8,1173.6,1062.2z"/>
		</g>
		<g>
			<path class="st7" d="M1196.2,836.8c-13.6,7.6-28.9,12.7-44.9,16.1c-93.1,18.6-214.7-26.4-214.7-26.4s26.7-40.4,49.2-82.9
				c2.2-3.9,4.1-7.8,6.1-11.8c9.9-19.5,7.7-32.4,1.7-43.8c-8.1-15.7-19.4-26.7-20.4-50.6c-1.7-41.3,82.3-77.8,82.3-77.8
				c132-7.9,100.8,69.5,88.2,132.2c-1.2,5.7-2.2,11.3-2.8,16.6c-0.2,1.2-0.3,2.4-0.3,3.6c-0.2,1.6-0.3,3.1-0.3,4.6
				C1137.9,778.4,1196.2,836.8,1196.2,836.8z"/>
			<g>
				<path class="st12" d="M936.2,827.6l-1.5-0.6l0.9-1.3c0.3-0.4,27-40.8,49.1-82.8c2.2-4,4.2-8,6.1-11.7
					c10.4-20.6,6.7-33.1,1.7-42.6c-2-3.9-4.3-7.6-6.4-11.1c-6.6-10.7-13.3-21.7-14.1-40c-1.7-41.7,79.6-77.5,83.1-79l0.4-0.1
					c45.7-2.7,75.1,4.5,90,22c19.3,22.7,11.2,58.6,3.4,93.3c-1.4,6.1-2.8,12.4-4,18.4c-1.3,6.6-2.2,11.8-2.8,16.6
					c-0.2,1-0.2,2.2-0.3,3.2v0.3c-0.2,1.5-0.2,3-0.3,4.6c-2.4,60.4,55,118.6,55.6,119.2l1.2,1.2l-1.5,0.8
					c-12.8,7.2-28.1,12.6-45.3,16.2c-15.9,3.2-32.6,4.5-49.4,4.5C1020.9,858.6,937.2,828,936.2,827.6z M1139,716.6
					c0.1-1.6,0.2-3.1,0.3-4.9c0.1-1.1,0.2-2.3,0.3-3.4c0.6-4.8,1.5-10.1,2.8-16.7c1.2-6,2.6-12.3,4-18.4
					c7.7-34.1,15.6-69.4-2.9-91.1c-14.3-16.9-43-23.8-87.7-21.1c-4.6,2-82.9,37.5-81.4,76.5c0.7,17.6,7,27.9,13.7,38.8
					c2.2,3.6,4.5,7.3,6.5,11.3c5.3,10.1,9.2,23.3-1.7,44.9c-1.9,3.8-3.9,7.8-6.1,11.8c-19.9,37.7-43.5,74.2-48.3,81.6
					c14.3,5,126.4,43,212.5,25.8c16.4-3.4,30.9-8.5,43.1-15.1C1185.9,827.8,1136.8,773.3,1139,716.6z"/>
			</g>
		</g>
		<path class="st26" d="M1140.3,716.7c0.1-1.1,0.1-2.1,0.2-3.2c0.1-1.7,0.2-3.4,0.4-5c0.7-5.4,14.2-65.1,14.9-79.9
			c-3.6-6.7-15.2,38.7-24.3,30.2c-24-22.7-22.6-71.6-22.6-71.6c-5.5,27.8-8.3,73.5,1,90.5c2,3.6,9,17.7,9.5,18.4
			c6.8,20.9,1.8,42,2.9,63.4c1,18.9,7.6,36.3,14.4,53.8c3.6,9.2,7.6,29.2,14.6,39.6c16.1-3.3,31.4-8.4,44.9-16.1
			C1196.2,836.8,1137.9,778.4,1140.3,716.7z"/>
		<g>
			<path class="st7" d="M1041.8,541.7V565c0,0-6.3,11.5,0,12.8c13.8,2.8,33.7-18.8,33.7-18.8v-31.3L1041.8,541.7z"/>
			<g>
				<path class="st12" d="M1041.6,579.1c-1.5-0.3-2.7-1.2-3.3-2.5c-1.7-3.7,1.4-10.3,2.3-11.9v-23.9l36.3-15v33.7l-0.3,0.4
					c-0.8,0.8-18.1,19.4-32.1,19.4C1043.4,579.4,1042.5,579.3,1041.6,579.1z M1074.3,529.7l-31.2,12.9v22.8l-0.2,0.3
					c-1.4,2.7-3.4,7.7-2.4,9.9c0.2,0.4,0.5,0.9,1.5,1c12,2.4,29.5-15.3,32.2-18L1074.3,529.7L1074.3,529.7z"/>
			</g>
		</g>
		<path class="st27" d="M1075.5,547.7v-17.8c0,0-17.2,16.4-33.7,17.3C1041.8,547.1,1061.8,556.8,1075.5,547.7z"/>
		<g>
			<path class="st7" d="M1033.6,473.6c0,0-12.4,25.2-15.5,48.6c-2.2,16.7,28.3,38.6,53.1,15.2c24.8-23.5,17.9-59.3,17.9-59.3
				L1033.6,473.6z"/>
			<g>
				<path class="st12" d="M1032.3,545.2c-10.2-5.2-16.6-14.8-15.5-23.2c3.1-23.4,15.5-48.8,15.6-49l0.4-0.8l57.4,4.6l0.2,0.9
					c0.1,0.4,6.7,36.8-18.3,60.5c-7.4,7-16.1,10.6-24.8,10.6C1042.2,548.9,1037.1,547.7,1032.3,545.2z M1034.3,474.9
					c-2.1,4.4-12.3,26.8-15,47.5c-1,7.2,5,15.9,14.1,20.6c12.2,6.2,26,3.8,36.9-6.5c21.8-20.6,18.6-51.5,17.7-57.2L1034.3,474.9z"/>
			</g>
		</g>
		<path class="st1" d="M1021.6,472.7c1.7-1.1,3.9-1.1,5.5-2.2c5.1-3.3,3-4.8,5.9-8c2.5-2.8,4.9-4.6,8.4-5.9
			c9.1-3.4,19.5-2.1,28.6,0.1c2.9,0.7,3.2,3.4,2.2,5.4c9,1.8,18.9,10.4,22.7,16.3c7.7,11.6,8.6,31.1,0.8,43
			c-6.1,9.3-17.6,17-23.8,4.6c-4.7-9.4-3.9-18.2-3.2-28.3c0.3-3.7,0.4-6.8,0-9.7c-4.9-6.7-11.5-11.3-19-11.4
			c-1.9,1.9-3.5,4.7-5.2,6.6c-2.6,2.8-5.8,5.1-9.4,6.6c-5.5,2.3-13.2,2.8-17-2.8C1014.7,482,1016.7,475.8,1021.6,472.7z"/>
		<g>
			<path class="st7" d="M1066.4,500.3c0,0,10-4.7,12,3.4c2,8-5.3,12.8-9.2,11.3C1065.4,513.4,1064.1,503.6,1066.4,500.3z"/>
			<g>
				<path class="st10" d="M1068.8,516.1c-2.2-0.8-3.4-3.3-4-5.3c-1.1-3.5-1.3-8.7,0.6-11.3l0.2-0.3l0.3-0.1c0.2-0.1,5.9-2.7,10-0.7
					c1.9,0.9,3.1,2.6,3.7,4.9c1,4.2-0.1,8.1-3.1,10.8c-1.7,1.5-3.9,2.4-5.8,2.4C1070.1,516.4,1069.4,516.3,1068.8,516.1z
					 M1067.3,501.3c-1,1.8-1,5.7-0.1,8.8c0.6,1.9,1.5,3.3,2.5,3.7c1.4,0.5,3.5-0.1,5.2-1.6c1.1-1,3.4-3.7,2.3-8.2
					c-0.4-1.6-1.2-2.7-2.4-3.2c-0.8-0.4-1.6-0.5-2.5-0.5C1070.2,500.2,1068.1,500.9,1067.3,501.3z"/>
			</g>
		</g>
		<g class="st28">
			<path class="st12" d="M1037,697.8c-14.1-5.4-29.6-3.3-43.4-9.8c6,11.4,8.1,24.3-1.7,43.8c-2,4-4,7.9-6.1,11.8
				c11.9-6.7,21.7-15,34.7-20.3c6.3-2.6,22.7-6.8,24.8-14.7C1046.8,702.8,1041.6,699.5,1037,697.8z"/>
		</g>
		<g>
			<path class="st7" d="M823.3,644c3.1-3.5,14.8-5.1,19.7-5.6c10.3-1.2,22-0.1,31.1,5.1c0.2-0.8,0.4-1.6,0.7-2.4
				c-1.4-0.8-3-1.3-4.4-1.7c-3.7-1.1-3.3-7.3,0.9-7c4.1,0.2,7.9,1,10.4,4.4c0.4,0.5,5.5,10.5,7.9,16.9c9.6,9.1,21.2,17.6,21.7,24.8
				c0.2,3.8-19.3,12.6-19.9,11.8c-1-1.3-13.2-10.4-19-14.9c-1.8,0.2-3.9,0.3-6.8,0.3c-11,0.6-13.9-7.5-11.1-8
				c-6.1-0.7-9.1-6.2-6.4-7.7c-5-1.7-8-11.6,0.3-11.9c-4.7-1.3-15.2-0.3-20.3,1.2C823.5,650.6,820.6,647.1,823.3,644z"/>
			<g>
				<path class="st12" d="M890.3,691.2c-0.7-0.9-8.5-6.8-13.7-10.8c-1.7-1.3-3.4-2.6-4.7-3.6c-1.6,0.2-3.5,0.3-6.4,0.2
					c-8.6,0.5-13-4.1-13.4-7.4c0-0.4,0-0.7,0-1c-3.6-1.1-5.9-3.7-6.3-6c-0.2-0.8-0.1-1.5,0.2-2.1c-2.7-1.8-4.6-5.5-4.1-8.6
					c0.1-0.7,0.4-2,1.4-3c-5-0.1-11.5,0.7-15,1.7c-2.8,0.8-5.4,0.1-6.6-1.9c-1.1-1.7-0.8-3.8,0.7-5.5l0,0c2.4-2.8,9.3-4.8,20.5-6
					c5.7-0.6,15.6-1,25.1,2.2c-1.2-1.2-1.6-3-1.3-4.5c0.4-2.4,2.3-3.8,4.7-3.7c4.2,0.2,8.4,1,11.4,4.9c0.5,0.7,5.6,10.7,8,16.9
					c2.1,2,4.2,3.9,6.3,5.8c7.8,7,15.2,13.6,15.5,19.7c0.3,5-18.1,12.4-18.3,12.5c-1.2,0.5-2.1,0.8-2.7,0.8
					C890.9,691.7,890.6,691.6,890.3,691.2z M869.1,635.3c-0.2,1.1,0.3,2.5,1.6,2.9s3.1,1,4.7,1.8l0.9,0.5l-0.3,1
					c-0.3,0.7-0.5,1.5-0.6,2.3l-0.4,1.7l-1.5-0.9c-10.5-6.1-23.5-5.7-30.3-5c-13.8,1.5-17.8,3.9-18.9,5.2c-0.7,0.8-0.9,1.7-0.5,2.4
					c0.5,0.8,1.9,1.4,3.8,0.8c5-1.4,15.8-2.6,21-1.2l7.8,2.2l-8,0.3c-2.3,0.1-3.7,1-3.9,2.8c-0.4,2.6,1.6,5.9,4,6.7l2.7,0.9
					l-2.5,1.4c-0.1,0.1-0.4,0.2-0.3,1c0.3,1.5,2.5,3.9,6.2,4.4l8.8,1l-8.7,1.5c-0.1,0.1-0.1,0.8,0.5,1.7c1.3,2,4.7,4.1,10.3,3.8
					c3.1,0,5.1-0.1,6.6-0.3l0.5-0.1l0.4,0.3c1.4,1.1,3.2,2.4,5.1,3.9c7.1,5.4,12,9.2,13.7,10.7c3.6-0.8,17.9-8.2,18.2-10.5
					c-0.3-5.1-7.3-11.3-14.7-18c-2.2-2-4.4-4-6.6-6l-0.3-0.5c-2.4-6.4-7.4-16-7.8-16.6c-2.2-2.9-5.4-3.7-9.5-3.9c-0.1,0-0.1,0-0.2,0
					C869.6,633.7,869.2,634.8,869.1,635.3z"/>
			</g>
		</g>
		<g>
			<path class="st7" d="M1021.9,783.2c56.3-7.9,102.9-75,117.5-100.5c20.6-36.2,24.1-101.8-3.7-111.2c-10.7-3.6-26.4,11.4-31.2,16
				c-39.5,37.5-83.6,110.6-93.1,116c-11.6,6.5-84.3-40.3-95.4-34.5c0,0-29.7,22.2-26,29.6C890,698.5,916.1,798,1021.9,783.2z"/>
			<g>
				<path class="st12" d="M888.8,698.9c-3.7-8,21.4-27.3,26.6-31.2c5.6-3,21.7,4.4,47.5,16.9c19.9,9.6,42.5,20.6,47.9,17.6
					c3.6-2,13.1-15.3,25.2-32.2c18.5-25.8,43.9-61.1,67.7-83.7c5.2-4.9,21-20,32.4-16.1c7.3,2.5,12.8,8.5,16.4,18
					c9.1,24.1,3.7,67.6-12,95.1c-5.4,9.4-54.2,92.1-118.4,101.2l0,0c-7.3,1-14.2,1.5-20.8,1.5C914.3,786,889.9,702.7,888.8,698.9z
					 M1021.7,782c51.2-7.2,97.4-66.2,116.6-99.9c15.3-26.9,20.7-69.4,11.8-92.9c-3.3-8.7-8.3-14.3-14.8-16.5
					c-6.6-2.2-16.6,3-29.9,15.7c-23.5,22.3-48.8,57.5-67.3,83.3c-12.8,17.8-22,30.6-26.1,32.9c-6.1,3.4-23.8-4.8-50.2-17.5
					c-18.9-9.1-40.3-19.5-45-17c-12,9-27.9,23.6-25.6,28l0.1,0.3C891.5,699.2,918.2,796.4,1021.7,782L1021.7,782z"/>
			</g>
		</g>
		<path class="st7" d="M1068.8,498l-0.3,4.3l0.3,10.8c0,0-0.1,2.4,0.1,3.3c0.2,1-8-0.3-8-0.3l-3.1-7.7l0.7-7.5l2.4-6.1l3.8-2.3
			l2.6,1.3L1068.8,498z"/>
		<path class="st7" d="M1064.5,631.4c0,0,2.5-1.6,1.9,1.5s43.4,8.3,43.4,8.3s-1-10.2,9.8-28.9s13.3-23.8,13.7-25.2
			c0.3-1.4,0.3-15.1,0.3-15.1s-6.8-2.2-9.5-3.7c-2.8-1.5-52.9,15.9-52.9,15.9l-16.1,35.4c0,0,5.7,6.1,5.7,7c0,0.8-2,8.3-2,8.3
			L1064.5,631.4z"/>
	</g>
	<g>
		<g>
			<g>
				<g>
					<path class="st1" d="M230.3,861.4c66.5-80.1,140.3-38.8,159.1-16c171.2,207.1,428,248.6,453.4,377.8
						c13.7,69.9-45.3,245-399.5,247.5c-369.7,2.6-456-211.3-371.5-348C156.2,986.2,163.8,941.6,230.3,861.4z"/>
					<g>
						<path class="st1" d="M193.2,1428.8c-58.3-26-102.6-63.6-128.1-108.9c-35-62.2-33.1-136.2,5.1-198
							c34.4-55.7,56.5-96.8,74.2-129.9c26.1-48.8,45-84.1,84.5-131.7c26.3-31.7,56.1-47.8,88.6-47.8h0.1c34.5,0,62.7,19,73.2,31.8
							c83.8,101.4,190.4,164.3,276,214.8c92,54.3,164.7,97.2,177.8,163.8c6,30.4-1.4,79.8-40,127c-45,55.1-144.2,121.1-361.3,122.6
							c-2.3,0-4.5,0-6.7,0C340.4,1472.6,258.5,1457.8,193.2,1428.8z M231.7,862.6L231.7,862.6c-39.2,47.3-58.1,82.4-84.1,131.1
							c-17.7,33.1-39.8,74.3-74.3,130.1c-37.5,60.6-39.4,133.3-5,194.4c25.1,44.6,68.8,81.8,126.4,107.4
							c66.3,29.5,150,44.1,248.6,43.4c215.7-1.5,314.1-66.8,358.6-121.3c37.8-46.3,45.1-94.4,39.2-124.1
							c-12.8-65-84.9-107.5-176.1-161.4c-85.9-50.7-192.7-113.7-276.9-215.6c-10.1-12.2-37.2-30.5-70.4-30.5h-0.1
							C286.2,816.1,257.3,831.7,231.7,862.6z"/>
					</g>
				</g>
			</g>
		</g>
		<path class="st29" d="M261.9,1010.1C278,885,359,901,475.1,987.8c115.9,86.7,150.8,129.4,227,132.7c76.1,3.3,76.9,47.1,63.2,58.2
			c-75.8,61.1-281.8,71-415.7,50.1c-69.3-10.8-135.7-88.6-188.3-83.2C161.2,1145.7,248.8,1111.3,261.9,1010.1z"/>
		<g>
			<path class="st7" d="M406.3,1464.6v-3.5c59.1,0,100.2-39.7,118.9-76.9c19.6-38.9,22.4-91.9-15.9-122.6
				c-28.8-23.1-65.8-26.9-101.6-30.6c-54.7-5.6-111.2-11.4-141.7-83.8c-49.8-118.3,29.3-313.6,30.1-315.5l4.1,1.1
				c-0.8,1.9-79.4,196.2-30.1,313.3c29.6,70.3,82.3,75.7,138.2,81.4c36.5,3.8,74.3,7.6,104.1,31.5c34.9,28,41.5,77.6,16.8,126.4
				C510,1423.8,467.5,1464.6,406.3,1464.6z"/>
		</g>
		<g>
			<path class="st7" d="M702.8,1416.2l-1.5-3.3c57.2-16.9,81.9-78.5,80.8-128.6c-1-43.2-20.8-94.3-73.5-108.1
				c-37-9.7-64.1-10-90.2-10.3c-46.4-0.6-86.4-1.1-162.7-56.4c-117.2-85-118.2-271.9-118.2-273.8h4.3c0,1.9,1,187.2,116.7,271.2
				c75.1,54.5,114.4,55,159.9,55.5c25.2,0.3,53.8,0.7,91.5,10.5c54.8,14.3,75.4,66.9,76.5,111.3
				C787.6,1335.6,762,1398.7,702.8,1416.2z"/>
		</g>
		<path class="st7" d="M354.7,1457.6c-31.4-2.7-62.4-9.1-92.1-18c-29.6-9.1-58-21.2-83.4-36.8c-25.4-15.6-47.3-35-63.7-57.2
			c-16.5-22.2-27-47.2-32.1-72.7c-2.6-12.8-3.7-25.7-3.8-38.6c-0.2-6.5,0.3-12.9,0.6-19.4c0.6-6.4,1.1-12.9,2.2-19.3
			c3.6-25.6,10.7-50.9,20.1-75.5c9.3-24.6,20.7-48.7,33.6-72.2c13-23.5,27.3-46.4,42.5-68.9c-14.6,22.8-28.3,46-40.6,69.6
			c-12.4,23.6-23.4,47.7-32.3,72.3c-4.5,12.3-8.3,24.7-11.7,37.2c-3.1,12.5-6,25.1-7.6,37.9c-1,6.3-1.4,12.7-2,19.1
			c-0.2,6.4-0.7,12.8-0.5,19.2c0.1,12.8,1.3,25.5,3.9,38.1c4.9,25.2,15.1,49.7,31.2,71.6c16,22,37.6,41,62.3,56.7
			c24.9,15.7,52.9,27.9,82.2,37.3C292.7,1447.4,323.4,1454.3,354.7,1457.6z"/>
	</g>
	<g>
		<path class="st12" d="M348.1,1159.3c-0.5,4.4,45.6,36.6,49.2,36.7c62.5,12.5,227.5-20.8,272.8,8.4c3.1,2,5.9,4.6,8.3,7.9
			c36,50,85.6,176.6,89.5,186.6c0,0.2,0.1,0.3,0.1,0.4c0.1,0.1,0.1,0.2,0.1,0.2v0.1l0,0l22.8-8.4c0,0,39.8-130.6,28.5-251.5
			c-10.7-114.8-221.6-100.9-221.6-100.9s-35.6-0.8-65.2,20.9c-5.3-6.9-44.3,51.5-44.3,51.5l-78.3-20.6
			C410,1090.7,355,1098.1,348.1,1159.3z"/>
		<path class="st11" d="M670.1,1204.4c3.6,1.7,6.4,4.3,8.3,7.9c43.8,82.7,85.6,177.9,89.5,186.6c0,0.2,0.1,0.3,0.1,0.4
			c0.1,0.1,0.1,0.2,0.1,0.2v0.1l0,0c1.2-0.8,33.9-114.2-15.1-282c-44.1-151-252.5,0.1-260.7,12l-153.5,29.7
			c-0.5,4.4,20.6,10.5,21.4,15.4L670.1,1204.4z"/>
		<g>
			<polygon class="st7" points="795,1384.2 799.7,1429.7 779.1,1435.6 755.7,1390.4 			"/>
			<g>
				<path class="st30" d="M753.1,1389.1l43.4-6.8l5,48.7l-23.3,6.6L753.1,1389.1z M793.6,1386.1l-35.4,5.6l21.8,42l18-5.1
					L793.6,1386.1z"/>
			</g>
		</g>
		<g>
			<path class="st1" d="M793.6,1422.7c0,0,95.6,2,112.8,49.8l-151.9-3.2c0,0-11.7-33.5,14.9-45.6
				C769.4,1423.6,777.4,1432.9,793.6,1422.7z"/>
			<path class="st7" d="M753.8,1464.1l104.5,2.2c0.1-10.5,2.5-20.5,7.5-29.9c0.5-0.9,1.8-0.1,1.4,0.8c-4.8,9.2-7.2,18.9-7.3,29.1
				l45.4,1c1,0,1,1.6,0,1.6l-45.4-1c0,1.2-0.1,2.4,0,3.6c0.1,1-1.5,1-1.6,0c-0.1-1.2,0-2.4,0-3.5l-104.6-2.2
				C752.8,1465.7,752.8,1464.1,753.8,1464.1z"/>
			<path class="st7" d="M808.8,1443.2c0,1,1.6,1,1.6,0c-0.3-7.2,3-13.9,8.9-18c0,0,0-0.1,0.1-0.1c0.1-0.1,0.1-0.2,0.2-0.3h0.1
				c0.1,0,0.2-0.1,0.2-0.1c2.6,0.6,5.3,1,8,1.2c-5.1,4.3-7.9,10.5-7.7,17.2c0,1,1.6,1,1.6,0c-0.2-6.6,2.6-12.5,7.7-16.6
				c0.2-0.2,0.3-0.4,0.2-0.7c3.3-0.1,6.4-0.8,9.2-2.9c3.4-2.5,6.9-8.3,5-12.6c1.9-4.9,2.2-12.1-2.1-15.4
				c-12.8-9.8-26.6,19.4-24.4,28.8c0.1,0.3,0.3,0.5,0.5,0.5C811.9,1428.9,808.5,1435.7,808.8,1443.2z M842.8,1408.9
				c-3.6-4.2-11-2.6-14.9,0.2c-4.3,3.1-8.1,7.4-9.4,12.5c-0.4-5.8,3.1-11.9,5.9-16.7c3.4-5.9,14.7-16.5,18.5-4.3
				C844,1403.8,843.8,1406.6,842.8,1408.9z M826.6,1412.3c2.6-2.4,5.4-4.2,9.1-4.3c2.5,0,5.1,0.5,6.3,2.6
				c-4.1,6.8-14.9,10.1-22.1,12.5C820.6,1418.7,823.3,1415.2,826.6,1412.3z M822.9,1423.8c7.1-2.2,15.9-5,19.7-11.1
				c0,0.2,0.1,0.3,0.1,0.6c0.1,5.2-5.2,9.7-9.8,10.8C829.7,1424.8,826.3,1424.4,822.9,1423.8z"/>
		</g>
		<path class="st12" d="M808.8,1397.6c0,0,7.5-5.7,1.4-13.5c0,0-0.1-6.5-1.7-9.1c-1.7-2.5-61,9.4-61.9,18.2
			c-0.8,8.8,5.5,9.5,5.5,9.5s-5.4,7.6,2.5,7.3C762.4,1409.7,791.1,1408.8,808.8,1397.6z"/>
		<path class="st12" d="M731.4,1150.5c-14.7,120.5-77.3,241-77.3,241l-24,3.8l0,0c0,0,0,0,0-0.1s0-0.2-0.1-0.2
			c0-0.1-0.1-0.2-0.1-0.4c-1.8-10.7-25.6-144.5-51.1-200.6c-2.2-4.9-5.4-8.9-9.4-11.9c-34.7-26.3-130,14.3-194.3,15.5c0,0,0,0-0.1,0
			c-94.7-38.8-48.1-125.8-48.1-125.8c19.1-14.3,55.4-20.3,55.4-20.3l145-13.5C600.3,1042.3,747.6,1017.3,731.4,1150.5z"/>
		<path class="st11" d="M647.7,1377.5L647.7,1377.5L647.7,1377.5c-8.9,14.3-17,17.6-17.6,17.9l0,0c0,0,0,0,0-0.1c0,0,0-0.2-0.1-0.2
			c0-0.1-0.1-0.2-0.1-0.4c-0.2-1-0.9-3.7-1.9-8c-9-37.1-45.9-185.8-50.1-188.3c-41.5-31.5-130.7,22.2-188.8,0
			c0,0-8.2,10.1-48.9-21.8c14.7,3.9,45.3,23.2,103.3,11.3c76.1-15.6,167-86.6,188.9-28.6C654.2,1216.8,647.8,1374.6,647.7,1377.5z"
			/>
		<g>
			<polygon class="st7" points="659.6,1385.4 655.2,1431 633.9,1432.7 619.7,1383.8 			"/>
			<g>
				<path class="st30" d="M617.5,1382l43.8,1.8l-4.6,48.7l-24.1,1.9L617.5,1382z M657.8,1387l-35.8-1.5l13.1,45.4l18.7-1.5
					L657.8,1387z"/>
			</g>
		</g>
		<g>
			<path class="st1" d="M656.1,1421c0,0,95.6,3.5,112.1,51.5l-151.9-5.5c0,0-11.2-33.7,15.6-45.4
				C631.9,1421.6,639.8,1431,656.1,1421z"/>
			<path class="st7" d="M615.7,1461.8l104.5,3.8c0.3-10.5,2.9-20.5,8-29.8c0.5-0.9,1.8,0,1.3,0.8c-5,9.1-7.5,18.8-7.7,29l45.4,1.6
				c1,0,1,1.6-0.1,1.6l-45.4-1.6c0,1.2-0.1,2.4-0.1,3.5c0,1-1.5,1-1.6-0.1c-0.1-1.2,0.1-2.4,0.1-3.5l-104.5-3.8
				C614.6,1463.4,614.6,1461.8,615.7,1461.8z"/>
			<path class="st7" d="M670.9,1441.8c0,1,1.6,1.1,1.6,0.1c-0.2-7.2,3.2-13.9,9.2-17.9c0,0,0-0.1,0.1-0.1c0.1-0.1,0.1-0.2,0.2-0.3
				h0.1c0.1,0,0.2-0.1,0.2-0.1c2.6,0.6,5.3,1.1,8,1.3c-5.2,4.3-8.1,10.4-8,17.1c0,1,1.6,1.1,1.6,0.1c-0.1-6.6,2.8-12.5,7.9-16.5
				c0.2-0.2,0.3-0.4,0.2-0.7c3.3,0,6.4-0.7,9.2-2.7c3.4-2.5,7-8.2,5.2-12.5c2-4.8,2.4-12-1.9-15.4c-12.6-10-26.9,19-24.8,28.4
				c0.1,0.3,0.3,0.5,0.5,0.5C674.3,1427.4,670.8,1434.3,670.9,1441.8z M705.5,1408c-3.5-4.2-10.9-2.7-14.9,0
				c-4.3,3-8.2,7.2-9.6,12.3c-0.3-5.9,3.3-11.9,6.2-16.7c3.5-5.8,14.9-16.3,18.5-4C706.7,1402.9,706.5,1405.6,705.5,1408z
				 M689.2,1411.1c2.7-2.3,5.5-4.2,9.2-4.2c2.5,0,5.1,0.6,6.3,2.7c-4.2,6.7-15,9.9-22.2,12.2C683.2,1417.5,685.9,1414,689.2,1411.1z
				 M685.4,1422.6c7.1-2.1,15.9-4.8,19.8-10.8c0,0.2,0.1,0.3,0.1,0.6c0.1,5.2-5.4,9.6-10,10.6
				C692.1,1423.7,688.7,1423.2,685.4,1422.6z"/>
		</g>
		<path class="st12" d="M670.4,1401.2c0,0,8.4-4.1,4-13c0,0,1.2-6.4,0.1-9.2c-1.1-2.8-61.7-2.8-64.2,5.7s3.5,10.4,3.5,10.4
			s-6.8,6.4,1,7.7C622.6,1404,650.9,1408.8,670.4,1401.2z"/>
		<g>
			<g>
				<g>
					<path class="st7" d="M672.3,959.4c-3.7,7.7-28.8-7-36-6.4c-48.5,4.4-83.5-29.8-106.5-44.5c-3.9-2.5-7.6-5.1-10.9-7.9
						c-16.6-13.7-26.2-30.2-32-44.5c-5.8-14.6-7.3-25.4-7.3-25.4s-57.3-123.2-27.3-117.3c30.1,6.1,77.3,53.7,112.2,90.3
						c1,1,2,2.1,3,3.1c2.2,2.3,4.3,4.5,6.3,6.6c5.4,5.7,10.5,11.1,15,15.7c9.8,10.2,33.7,38.8,33.7,38.8S687.5,927.8,672.3,959.4z"
						/>
					<g>
						<path class="st12" d="M649.6,957.8c-5.5-2-10.7-3.9-13.2-3.7c-39.9,3.7-70.8-18.6-93.3-34.9c-5-3.6-9.7-7-13.9-9.7
							c-4-2.5-7.7-5.2-11-8c-14.1-11.7-25-26.8-32.3-44.9c-5.4-13.5-7.1-24-7.4-25.5c-2.7-5.8-46.2-100.4-33.7-116.4
							c1.7-2.2,4.3-2.9,7.6-2.3c28.7,5.8,71.2,47,112.8,90.6c0.4,0.4,0.8,0.8,1.1,1.2c0.6,0.6,1.2,1.3,1.8,1.9l2,2.1
							c1.5,1.6,2.9,3.1,4.3,4.5l0.8,0.9c5.1,5.4,9.9,10.5,14.2,14.8c9.7,10.1,33.5,38.5,33.6,38.7c2.7,2.5,65.5,60.7,50.1,92.7
							c-1,2.1-3,2.8-5.7,2.8C662.9,962.7,656.2,960.2,649.6,957.8z M446.6,716.1c-9.5,12.1,18.1,80,34,114.3l0.1,0.3
							c0,0.1,1.5,10.9,7.2,25.1c7.2,17.8,17.8,32.6,31.7,44.1c3.3,2.8,6.9,5.4,10.8,7.8c4.3,2.7,9,6.1,14,9.8
							c22.2,16.1,52.7,38.1,91.8,34.5c3-0.3,8.1,1.6,14.1,3.9c8.5,3.1,19.1,7,21,3.1l0,0c14.7-30.5-49-89.5-49.7-90.2
							c-0.2-0.3-23.9-28.7-33.6-38.7c-4.3-4.3-9.1-9.4-14.2-14.8l-0.8-0.9c-1.4-1.5-2.9-3-4.3-4.5l-1.9-2.1
							c-0.6-0.6-1.3-1.3-1.9-1.9c-0.4-0.4-0.7-0.8-1.1-1.2c-39.4-41.3-83.4-84.3-111.6-90c-0.6-0.1-1.2-0.2-1.8-0.2
							C448.7,714.4,447.5,714.9,446.6,716.1z"/>
					</g>
				</g>
			</g>
			<g class="st31">
				<path class="st12" d="M627.4,912.2c-17-1.1-41.3,1.7-48.9-18.4c-4.5-12,6.7-29.3,9.1-41.1c1.7-7.7,1.9-13.9,1.2-21.8
					c-4.5-4.6-10.2-11-15.6-16.7c-2-2.1-3.7-5.1-5.9-7.4c-9.9,10.2-16.3,30.4-19.9,39.6c-7.2,17.7-22.9,39.6-18.3,59.8
					c0.2,0.8,0.4,1.6,0.6,2.3c23,14.6,56.4,23.9,104.8,19.4c7.2-0.6,12.5-5.6,16.1-13.2C644.6,911.4,633.4,912.6,627.4,912.2z"/>
			</g>
			<g>
				<g>
					<path class="st7" d="M479.6,830.8c0,0,1.5,10.8,7.3,25.4c6.7,16.9,19.3,38.9,42,54.7c23.2,16.1,61.4-98.8,37.5-119.6
						c-36.4-31.7-84.5-71.8-114.1-77.8C422.4,707.6,479.6,830.8,479.6,830.8z"/>
					<g>
						<path class="st12" d="M528.3,911.8c-23.3-16.2-35.9-39-42.4-55.2c-5.4-13.5-7.1-24-7.4-25.4c-2.7-5.8-46.2-100.4-33.7-116.4
							c1.7-2.2,4.3-2.9,7.6-2.3c28.6,5.7,74,42.6,114.6,78c18.9,16.5,1.1,87.1-19.4,113.5c-5.7,7.3-10.4,9.6-14.1,9.6
							C531.5,913.5,529.7,912.8,528.3,911.8z M446.6,716.1c-9.5,12.1,18.1,80,34,114.3l0.1,0.3c0,0.1,1.5,10.9,7.2,25.1
							c6.4,16,18.7,38.3,41.6,54.2c5.7,4,12.1-1.8,16.5-7.4c19.6-25.1,37.5-95,19.7-110.5c-40.4-35.2-85.6-71.9-113.6-77.5
							c-0.6-0.1-1.2-0.2-1.8-0.2C448.7,714.4,447.5,714.9,446.6,716.1z"/>
					</g>
				</g>
			</g>
			<g class="st31">
				<path class="st12" d="M450.5,721.8c0,0,30.1,34.4,40.8,60.8c10.6,26.4,29.9,63.2,29.7,93.1c-0.2,23.7-0.6,28.3-0.8,28.3
					c0,0,0,0-0.1,0l-21.6-19.8c0,0-23.4-22.2-22.3-29.1C477.5,848.3,450.5,721.8,450.5,721.8z"/>
			</g>
			<g>
				<g>
					<path class="st7" d="M563.5,982c-0.3,4.1-46,47.2-72.9,65.5c-46.7,31.6-129.8,67.5-153.1,68.6c-9.5,0.5-15.9-0.6-18-3.1
						c-6.5-8.2-13.4-101.8-29.6-161.3c-3.1-11.5-6.2-23.2-9-34.7c-14.8-60.1-24.2-117.5-13-131.3c2.5-3.2,5.5-6.5,8.8-10.2
						c4.9-5.5,10.8-11.4,17.6-17.3c10.6-9.3,23.5-18.7,38.5-26.6c23-12.3,51.2-21.3,84.4-21.7c0,0,0,0.1,0.1,0.1
						c8-0.1,16.4,0.3,25,1.4c2,0.2,4.1,0.5,6.2,0.7c29.2,4.3,39.3,63.2,46.7,112.8c3.5,23,6.4,44,10.3,56.7
						c1.4,4.2,2.9,8.4,4.7,12.4C524.9,928.3,552.8,957.1,563.5,982z"/>
					<g>
						<path class="st30" d="M318.7,1113.6c-3-3.8-5.7-21.8-10.1-53.3c-4.8-33.8-10.8-75.9-19.6-108.4c-3.7-13.6-6.5-24.7-9-34.8
							c-12.8-51.8-25.3-116.8-12.8-132.2c2.3-2.9,5.1-6.1,8.8-10.2c5.4-6,11.4-11.9,17.7-17.4c12-10.5,25-19.5,38.7-26.7
							c26.5-14.2,55-21.5,84.9-21.8h0.9v0.1c8.1-0.1,16.4,0.4,24.4,1.4c1.5,0.1,2.9,0.3,4.4,0.5l1.8,0.2
							c29,4.3,39.4,58.5,47.6,113.7l1.1,7.3c3.1,20.4,5.7,38,9.2,49.2c1.5,4.7,3,8.7,4.7,12.3c7.9,18.5,19.9,35.7,30.5,51
							c9.1,13.1,17.8,25.5,22.7,37.1l0.1,0.2v0.3c-0.4,5.2-47.8,49-73.4,66.3c-47.1,31.9-130.4,67.7-153.6,68.8
							c-1.6,0.1-3,0.1-4.4,0.1C325.5,1117.3,320.7,1116.1,318.7,1113.6z M540,945.8c-10.6-15.3-22.7-32.7-30.7-51.3
							c-1.7-3.7-3.2-7.8-4.7-12.6c-3.5-11.4-6.2-29.1-9.2-49.5l-1.1-7.3c-8.1-54.4-18.3-107.8-45.8-111.9l-1.8-0.2
							c-1.5-0.2-2.9-0.4-4.4-0.5c-8.2-1-16.6-1.5-24.7-1.4l-1.2,0.2l-0.1-0.2c-29.2,0.4-57.1,7.7-83,21.5
							c-13.5,7.1-26.4,16-38.3,26.5c-6.3,5.5-12.2,11.3-17.6,17.2c-3.7,4.1-6.5,7.3-8.7,10.1c-9.3,11.5-4.6,57.8,13.2,130.3
							c2.4,10.1,5.3,21.1,8.9,34.7c8.9,32.5,14.9,74.7,19.7,108.6c3.7,26.2,6.9,48.7,9.7,52.2c1.8,2.2,8,3.2,17.1,2.7
							c22.9-1.1,105.7-36.7,152.5-68.4c26.3-17.8,70.1-59.1,72.4-64.5C557.5,970.9,549,958.7,540,945.8z"/>
					</g>
				</g>
			</g>
			<g>
				<path class="st7" d="M575.3,979.6c-0.3,4.1-62.2,53.6-97.9,79.3c-45.7,33-116.5,55-139.8,56.1c-9.5,0.5-15.9-0.6-18-3.1
					c-6.5-8.2-13.4-101.8-29.6-161.3c-3.1-11.5-6.2-23.2-9-34.7c-14.8-60.1-24.2-117.5-13-131.3c2.5-3.2,5.5-6.5,8.8-10.2
					c4.9-5.5,10.8-11.4,17.6-17.3c10.6-9.3,23.5-18.7,38.5-26.6c23-12.3,51.2-21.3,84.4-21.7c0,0,0,0.1,0.1,0.1
					c8-0.1,16.4,0.3,25,1.4c2,0.2,4.1,0.5,6.2,0.7c29.2,4.3,39.3,63.2,46.7,112.8C498.9,846.8,580.5,975.5,575.3,979.6z"/>
				<path class="st12" d="M318.8,1112.6c-3-3.8-5.7-21.8-10.1-53.3c-4.8-33.8-10.8-75.9-19.6-108.4c-3.7-13.6-6.5-24.7-9-34.8
					c-12.8-51.8-25.3-116.8-12.8-132.2c2.3-2.9,5.1-6.1,8.8-10.2c5.4-6,11.4-11.9,17.7-17.4c12-10.5,25-19.5,38.7-26.7
					c26.5-14.2,55-21.5,84.9-21.8h0.9v0.1c8.1-0.1,16.4,0.4,24.4,1.4c1.5,0.1,2.9,0.3,4.4,0.5l1.8,0.2c29,4.3,39.4,58.5,47.6,113.7
					c1.8,12,25.7,54,46.7,91.1c27.4,48.3,35.1,62.7,33,65.5c-3.9,7.5-67.7,57.6-98.1,79.6c-45.6,32.9-116.8,55.2-140.4,56.3
					c-1.6,0.1-3,0.1-4.4,0.1C325.7,1116.2,320.8,1115,318.8,1112.6z M574.3,979l0.2-0.2c0.4-4-17.4-35.4-33.1-63.1
					c-21.1-37.2-45.1-79.4-47-91.8c-8.1-54.4-18.3-107.8-45.8-111.9l-1.8-0.2c-1.5-0.2-2.9-0.4-4.4-0.5c-8.2-1-16.6-1.5-24.7-1.4
					l-1.2,0.2l-0.1-0.2c-29.2,0.4-57.1,7.7-83,21.5c-13.5,7.1-26.4,16-38.3,26.5c-6.3,5.5-12.2,11.3-17.6,17.2
					c-3.7,4.1-6.5,7.3-8.7,10.1c-9.3,11.5-4.6,57.8,13.2,130.3c2.4,10.1,5.3,21.1,8.9,34.7c8.9,32.5,14.9,74.7,19.7,108.6
					c3.7,26.2,6.9,48.7,9.7,52.2c1.8,2.2,8,3.2,17.1,2.7c23.4-1.1,93.9-23.2,139.2-55.9c37.5-27.1,95.6-73.9,97.4-78.6L574.3,979z"
					/>
			</g>
			<g>
				<g>
					<path class="st7" d="M391.8,690.2l2.5,26.7c0,0,7.4,11,1.2,12.8c-13.6,4.1-35-9.6-35-9.6l-3.8-40.7L391.8,690.2z"/>
					<g>
						<path class="st12" d="M359.9,721l-0.4-0.3l-4-42.8l37.4,11.6l2.5,27.1c0.9,1.4,4.8,7.7,3.4,11.6c-0.5,1.3-1.5,2.2-2.9,2.7
							c-1.9,0.6-3.9,0.8-5.9,0.8C376.6,731.5,360.7,721.5,359.9,721z M357.9,680.9l3.6,38.5c3.1,1.9,21.8,12.8,33.7,9.2
							c0.8-0.2,1.3-0.7,1.5-1.3c0.9-2.6-2.1-8-3.3-9.9l-2.6-26.4L357.9,680.9z"/>
					</g>
				</g>
			</g>
			<g>
				<path class="st27" d="M358.6,699.4l-1.7-18c0,0,18.6,27.8,35.3,27.2C392.2,708.6,375.2,715,358.6,699.4z"/>
			</g>
			<g>
				<g>
					<path class="st7" d="M419.2,641.7c0,0,1.9,28.2-4.2,51.3c-4.3,16.4-41.2,25.1-55.3-6.3c-14.1-31.4,6.1-62.2,6.1-62.2
						L419.2,641.7z"/>
					<g>
						<path class="st12" d="M358.7,687.2c-14.2-31.6,5.9-62.9,6.2-63.2l0.5-0.7l55,17.6v0.7c0,0.3,1.8,28.7-4.2,51.6
							c-2.2,8.2-11.7,14.5-23.1,15.5c-1,0.1-2,0.1-2.9,0.1C376.5,708.9,364.9,700.9,358.7,687.2z M366.2,625.8
							c-2.8,4.7-18.1,32.5-5.6,60.5c6.2,13.9,18.2,21.4,32.1,20.3c10.4-0.9,19.3-6.7,21.2-13.9c5.5-20.6,4.5-45.6,4.2-50.2
							L366.2,625.8z"/>
					</g>
				</g>
			</g>
			<g class="st32">
				<path class="st12" d="M361.1,918.5c17.7-45.8-9.6-116.6-62.8-142.1c-15-7.2,4.4,71.3-7.6,105.4c-4.3,12.3-7.6,23.7-9.6,35.2
					c2.8,11.5,5.8,23.2,9,34.7c16.2,59.4,23,153,29.6,161.3c2.1,2.6,8.5,3.6,18,3.1c2.1-26.6-2.5-92.8-5.3-118.4
					C328.5,961.9,348.9,949.7,361.1,918.5z"/>
			</g>
			<g>
				<path class="st1" d="M428.1,610.5c-4.7-0.7-8.3,0.6-12.9,1.3c-7.7,1.3-13.8,0-21.3-1.4c-9.2-1.7-18.1-2.9-26.5,2.3
					c-13.2,8.1-21.8,32.2-18.1,48.5c-0.3,2.9,0,5.7,2.9,8.3c4.4,4,10.8,3.2,14.6-1.1c5.8-6.4,5.4-17.2,7.3-25.1
					c0.4-1.8,1.2-4,1.7-6.2c20.3,8,47.9,17.6,65,5.5C458.6,630,445.8,613,428.1,610.5z"/>
			</g>
			<g>
				<g>
					<g>
						<polygon class="st7" points="535.2,1020.4 409.7,1041.5 534.2,1062.5 						"/>
						<path class="st10" d="M400.8,1041.5l135.9-22.9l-1.1,45.6L400.8,1041.5z M418.6,1041.5l114.2,19.2l0.9-38.6L418.6,1041.5z"/>
					</g>
				</g>
				<g>
					<g>
						<polygon class="st7" points="409.7,1041.5 410.3,1053.5 535.9,1077.7 534.2,1062.5 						"/>
						<path class="st1" d="M410,1055l-1.1-0.2l-0.8-15l126.3,21.3l1.1,0.2l2,18.3L410,1055z M411.3,1043.3l0.5,9.1l122.4,23.6
							l-1.3-12.1L411.3,1043.3z"/>
					</g>
				</g>
				<g>
					<g>
						<polygon class="st22" points="793.9,1018.8 534.2,1062.5 535.9,1077.7 795.3,1032.4 						"/>
						<path class="st7" d="M532.6,1061.3l262.6-44.2l1.7,16.5l-260.7,45.6l-1.5,0.3L532.6,1061.3z M792.6,1020.5l-256.7,43.2
							l1.3,12.3l256.5-44.8L792.6,1020.5z"/>
					</g>
				</g>
				<g>
					<g>
						<path class="st7" d="M793.9,1018.8l-259.7,43.7l5-144.1c0.1-5,3.8-9.2,8.7-10l238.8-40.2c6.4-1.1,12.3,4,12.1,10.5
							L793.9,1018.8z"/>
						<path class="st1" d="M537.7,918.3c0.1-5.7,4.3-10.5,9.9-11.4l238.8-40.2c3.5-0.6,7.1,0.4,9.7,2.7c2.7,2.3,4.2,5.7,4.1,9.3
							l-4.9,141.3l-262.6,44.2L537.7,918.3z M797.3,878.6c0.1-2.7-1.1-5.2-3.1-7s-4.7-2.5-7.3-2.1l-238.8,40.2
							c-4.2,0.7-7.3,4.3-7.4,8.6l-4.9,142.3l256.7-43.2L797.3,878.6z"/>
					</g>
				</g>
			</g>
			<g>
				<path class="st7" d="M237.5,1077.2c46.1,40.1,188.2-42.2,188.2-42.2l-8.6-26.2c0,0-88.3,29-113.4,3.4c-4.6-4.6-10-69.1,2.9-89.2
					c5.8-8.9,11.9-17.9,17.3-25.5c13.1-18.4,20.4-40.6,18.9-63.2c-1.3-21.7-8.6-38.5-16.9-51c-11.6-17.4-37.1-17.7-49.8-1.1
					c-24.3,32.1-57.8,107.1-58.7,108.9C187.8,958.1,191.2,1037,237.5,1077.2z"/>
				<path class="st12" d="M236.8,1078L236.8,1078c-43.9-38.2-52.3-115.2-20.4-187.3l0.2-0.5c5.9-13,36.3-79.1,58.6-108.5
					c6.3-8.2,16.3-13,26.6-12.6c10.2,0.3,19.3,5.3,24.9,13.8c10.2,15.2,15.9,32.6,17.1,51.5c1.4,21.8-5.3,44.5-19.1,63.9
					c-4.4,6.2-10.9,15.6-17.3,25.4c-12.3,19.2-7.3,83.4-3,87.8c24.3,24.8,111.4-3.4,112.2-3.7l1-0.3l9.2,28.1l-0.8,0.4
					c-4.7,2.7-93.1,53.4-152.2,53.4C259.2,1089.3,246.1,1086.1,236.8,1078z M416.5,1010.1c-10.5,3.3-89.3,27.3-113.4,2.8
					c-5.1-5.2-10-70.6,2.7-90.5c6.4-9.9,12.9-19.3,17.3-25.5c13.4-18.9,20.1-41.1,18.7-62.5c-1.2-18.5-6.8-35.5-16.7-50.4
					c-5.2-7.8-13.6-12.5-23.2-12.8c-9.7-0.3-19,4.1-24.8,11.8c-22.2,29.2-52.5,95.1-58.4,108.1l-0.2,0.5
					c-31.5,71.3-23.4,147.3,19.8,184.8c43.3,37.6,174.9-35.5,186.2-41.9L416.5,1010.1z"/>
			</g>
			<g>
				<g>
					<path class="st7" d="M310,936.2c5.3-8.2,38.4-61.1,34.9-105c-1.6-19.9-18.7-64.9-44-64.7c-40.4,0.3-78.3,68.3-103.5,118.7
						C222.5,918,264.2,935,310,936.2z"/>
					<g>
						<path class="st12" d="M309.9,937.3c-48-1.3-89.4-20-113.3-51.3l-0.4-0.5l0.3-0.6c27.7-55.4,64.6-119,104.4-119.3
							c0.1,0,0.1,0,0.2,0c26.1,0,43.3,46,44.9,65.7c3.5,43.2-28.6,95.6-35.1,105.6l-0.3,0.5L309.9,937.3z M300.9,767.7
							c-38.6,0.3-74.9,62.8-102.2,117.5c23.6,30.4,63.8,48.5,110.7,49.9c7.1-11.1,37.8-61.9,34.4-103.8
							c-1.5-19.1-17.9-63.7-42.7-63.7C301.1,767.7,301,767.7,300.9,767.7z"/>
					</g>
				</g>
			</g>
			<g>
				<g>
					<path class="st7" d="M494.3,983.6c-6.9-0.6-14.1,0.6-21,2.7c-0.9,0-1.8,0.2-2.6,0.2c0.3-0.9,0.7-1.7,0.8-2.6
						c1.1-5.6-0.6-14.2-7.4-15.2c-7.2-1.1-9.4,8.3-11.8,13.2c-2.8,5.7-6.2,11.4-11,15.6c-5,3.7-11,5.5-16.7,8
						c-4.1,1.8-11,3.7-12.6,8.5c-1.3,3.8,0.4,10.8,2.2,14.4c2.3,4.5,7,5.7,11.6,6.6c2.9,0.6,7.5,0.9,11.9,0.6
						c7.3,0.4,14.7-0.1,21.2-3.8c1.4-0.8,2.7-1.7,3.9-2.7c6.8,1.1,13.5,0.3,20-2.3c3.1-1.3,3.3-4.6,1.9-6.8c1.3-0.7,2.4-1.7,3.1-2.9
						c0.9-1.5,0.9-3.1,0.7-4.6c1.2-1.1,2.2-2.2,2.8-3.4c2.8-4.7,2.2-9.6-0.1-13.1c7.1,1.5,13.7,5.1,20,9.3c3.2,2.1,6.8,0.1,7.5-3.4
						C520.8,990.5,502.9,984.3,494.3,983.6z"/>
					<g>
						<path class="st12" d="M425.5,1036c-4.9-0.9-9.8-2.3-12.3-7.2c-1.9-3.6-3.7-10.9-2.3-15.2c1.5-4.5,6.8-6.6,11-8.3
							c0.8-0.3,1.5-0.6,2.2-0.9c1.4-0.6,2.8-1.2,4.3-1.8c4.2-1.7,8.5-3.4,12.1-6.1c5-4.4,8.4-10.5,10.8-15.3c0.4-0.9,0.9-1.9,1.3-3
							c2.1-5,4.9-11.8,11.6-10.8c2.5,0.4,4.6,1.7,6.1,3.8c2.7,3.9,2.9,9.2,2.3,12.7c-0.1,0.4-0.2,0.8-0.3,1.2c0.3,0,0.6,0,0.9,0
							c7.6-2.4,14.8-3.3,21.2-2.7l0,0c6.2,0.5,18,3.9,23.1,10.7c2.1,2.7,2.8,5.7,2.2,8.8c-0.4,2.2-1.8,3.9-3.7,4.7
							c-1.8,0.7-3.7,0.5-5.4-0.6c-6.4-4.3-12-7.1-17.3-8.6c1.6,3.8,1.2,8.1-1.1,12c-0.6,1.1-1.5,2.2-2.6,3.2
							c0.2,1.8-0.1,3.4-0.9,4.8c-0.6,1-1.5,1.9-2.6,2.7c0.6,1.3,0.7,2.8,0.3,4.1c-0.5,1.5-1.6,2.7-3.2,3.3
							c-6.5,2.7-13.2,3.5-20.1,2.5c-1,0.8-2.2,1.7-3.6,2.5c-7.2,4.1-15.4,4.2-21.7,3.9c-1.3,0.1-2.5,0.1-3.7,0.1
							C430.7,1036.8,427.6,1036.4,425.5,1036z M458.4,1030.8c1.4-0.8,2.7-1.8,3.7-2.6l0.4-0.3l0.5,0.1c6.7,1.1,13.2,0.3,19.5-2.3
							c1-0.4,1.6-1.1,1.9-2c0.3-1,0.1-2.3-0.5-3.3l-0.6-1l1-0.6c1.3-0.7,2.1-1.5,2.7-2.5c0.6-1.1,0.8-2.3,0.5-3.8l-0.1-0.6l0.5-0.4
							c1.1-1,2-2.1,2.6-3.1c2.3-4,2.3-8.4-0.1-11.9l-1.5-2.2l2.6,0.6c6.3,1.3,12.7,4.4,20.4,9.5c1.1,0.7,2.3,0.9,3.4,0.4
							c1.2-0.5,2.1-1.7,2.4-3.1c0.5-2.5-0.1-4.9-1.8-7.1c-4.4-5.9-15.2-9.3-21.5-9.9l0,0c-6.2-0.6-13.2,0.4-20.6,2.7l-0.2,0.1h-0.2
							c-0.5,0-1,0-1.5,0.1c-0.4,0-0.7,0.1-1.1,0.1l-1.5,0.1l0.4-1.5c0.1-0.3,0.2-0.7,0.3-1c0.2-0.5,0.4-1,0.5-1.5
							c0.6-3.3,0.3-7.9-1.9-11c-1.2-1.7-2.7-2.6-4.6-2.9c-4.7-0.7-6.9,3.7-9.3,9.5c-0.5,1.1-0.9,2.2-1.4,3.1c-2.5,5-6,11.3-11.3,16
							c-3.9,2.8-8.4,4.6-12.7,6.4c-1.4,0.6-2.8,1.1-4.2,1.7c-0.7,0.3-1.4,0.6-2.3,0.9c-3.8,1.5-8.6,3.4-9.8,6.9
							c-1.2,3.5,0.5,10.3,2.1,13.5c2.1,4,6.3,5.2,10.8,6c2.6,0.5,7.1,0.9,11.8,0.6C443.8,1034.8,451.7,1034.6,458.4,1030.8z"/>
					</g>
				</g>
			</g>
			<g>
				<g>
					<g>
						<path class="st7" d="M790.1,943.2c-1.8-1-4.7-3.9-3.2-6.6c0.2-0.3,0.4-0.6,0.6-0.8c-1.4-0.2-2.8-0.6-4-1.4
							c-2.7-1.6-6-5.7-2.4-8.9c1.4-1.3,3.2-2,5.1-2.5c-2.4-1.4-4.1-3.6-4.4-7.2c-0.3-5.2,3.4-6.5,7.2-6.7c-3.2-1.8-7.6-5.5-3.7-9.3
							c2.2-2.1,6.1-2.8,8.7-3.4c3.8-0.9,7.6-1.3,11.4-1.2c0.1,0,0.3,0,0.4,0.1c0.4-0.2,1-0.2,1.6,0.2c3.2,2.6,5.7,8.2,1,11.6
							c-1.2,0.8-2.5,1.6-3.9,2.2c3.4,0.7,6,2.4,5.6,6.2c-0.4,4-4.1,6.4-8,7.7c0.1,0.1,0.1,0.1,0.2,0.2c1.2,1.5,2.7,3.4,2,5.7
							c-0.6,1.8-2.4,3-4.1,3.8c0.4,0.2,0.7,0.5,0.8,0.9C802.4,940.6,795.6,946.1,790.1,943.2z"/>
					</g>
					<g>
						<g>
							<path class="st30" d="M789.6,944.1c-1.5-0.8-3.3-2.5-4-4.5c-0.3-1.1-0.3-2.1,0.1-3.1c-1-0.3-1.9-0.7-2.8-1.2
								c-2.1-1.2-4.2-3.6-4.5-6.2c-0.1-1.2,0.1-2.9,1.9-4.5c1-0.8,2.1-1.5,3.4-2.1c-1.9-1.7-2.9-4-3.1-6.8c-0.1-2.2,0.4-4.1,1.6-5.4
								c0.9-1,2.1-1.7,3.7-2.1c-1.7-1.3-3.1-3-3.3-4.9c-0.2-1.6,0.4-3.1,1.8-4.5c2.1-2.1,5.5-2.9,8.2-3.5l1-0.2
								c3.7-0.9,7.5-1.3,11.6-1.2c0.1,0,0.2,0,0.3,0c0.8-0.2,1.6-0.1,2.3,0.5c1.9,1.5,4.1,4.5,4,7.8c-0.1,2.2-1.1,4.1-3,5.5
								c-0.5,0.4-1.1,0.7-1.7,1.1c3.5,1.6,4.1,4.3,3.8,6.5c-0.4,3.5-2.9,6.3-7.3,8.1c1.1,1.5,2.1,3.4,1.4,5.7
								c-0.6,1.8-2,2.9-3.4,3.8c0,0.1,0.1,0.2,0.1,0.4l0,0c0.8,3.8-0.6,7.6-3.7,9.9c-1.6,1.2-3.3,1.8-5.1,1.8
								C792,945.1,790.8,944.8,789.6,944.1z M800.6,933.6l-0.9,0.1l-2-1l2-1c1.4-0.7,3-1.7,3.5-3.2c0.6-1.7-0.7-3.3-1.8-4.7
								l-1.5-1.2l1.8-0.6c3.1-1.1,6.9-3.1,7.3-6.8c0.2-1.7-0.1-4-4.8-5l-3.4-0.7l3.1-1.4c1.4-0.6,2.6-1.3,3.7-2.1
								c1.4-1,2.1-2.3,2.1-3.8c0.1-2.4-1.6-4.8-3.2-6.1c-0.1,0-0.2-0.2-0.4-0.1l-0.5,0.2l-0.4-0.1c-4,0-7.6,0.3-11.1,1.2l-1,0.2
								c-2.4,0.6-5.5,1.3-7.2,2.9c-0.9,0.9-1.3,1.8-1.2,2.6c0.2,1.5,1.9,3.3,4.7,4.9l3.2,1.8l-3.7,0.2c-2.5,0.1-4.2,0.7-5.2,1.8
								c-0.8,0.9-1.1,2.1-1,3.8c0.2,2.9,1.5,5,3.8,6.3l2.3,1.3l-2.6,0.7c-1.9,0.5-3.4,1.2-4.6,2.3c-0.9,0.8-1.3,1.7-1.2,2.6
								c0.2,1.7,1.9,3.6,3.4,4.5c1.1,0.6,2.2,1,3.6,1.2l2.3,0.3l-1.7,1.5c-0.2,0.2-0.3,0.3-0.4,0.5c-0.3,0.6-0.4,1.2-0.1,1.9
								c0.4,1.3,1.8,2.7,2.9,3.3c2,1.1,4.4,0.8,6.4-0.7c1.8-1.4,3.6-4.1,2.8-7.7L800.6,933.6L800.6,933.6z M800.8,933.6
								C800.8,933.6,800.7,933.7,800.8,933.6L800.8,933.6L800.8,933.6z"/>
						</g>
					</g>
				</g>
			</g>
			<path class="st7" d="M423.9,1007c0,0-11.5,4.7-16.9,6s-2.4,18.7-2.4,18.7l12,5.6l6.1-1.8c0,0,1.1-2.1,5.4-1.2
				c4.3,0.9,10.4-13,10.4-13l-3.6-7.1c0,0,0-2.1-3.5-3.1s-5.2-1.5-5.6-1.9C425.4,1008.7,423.9,1007,423.9,1007z"/>
			<path class="st7" d="M288.5,764.9l-14.7,12.7l55.3,37.5l11.3-0.2c0,0-0.1-2.6,2.3-0.5c2.3,2,4.8-22,4.8-22l-13.9-27.9l-5.3-5.5
				l-7.9-3.5l-18.2,4.9L288.5,764.9z"/>
			<path class="st7" d="M468.2,720.1c0,0-17.8-7.8-22.8-7.3s6,17.9,6,17.9s2.2,5.6,5.4,11.3c3.1,5.7,23.4,31.6,23.4,31.6l4.9-0.1
				c0,0,1.3-1.5,2.2,0.2c0.9,1.7,11.9-4,11.9-4l-4.9-10.9L484,740.9c0,0-2.8-4.8-4.1-6.6C478.5,732.6,468.2,720.1,468.2,720.1z"/>
		</g>
	</g>
	<g>
		<g>
			<path class="st1" d="M410.4,479.8c0,76.9-62.3,139.2-139.2,139.2S132,556.7,132,479.8s62.3-139.2,139.2-139.2
				C348,340.6,410.4,402.9,410.4,479.8z"/>
			<g>
				<path class="st7" d="M271.2,621.5c-78.1,0-141.7-63.6-141.7-141.7s63.6-141.7,141.7-141.7s141.7,63.6,141.7,141.7
					S349.3,621.5,271.2,621.5z M271.2,343.1c-75.3,0-136.6,61.3-136.6,136.6s61.3,136.6,136.6,136.6S407.8,555,407.8,479.7
					S346.5,343.1,271.2,343.1z"/>
			</g>
		</g>
		<g>
			<path class="st33" d="M255.3,563.7c-7.2,0-23.5-4.3-70.5-70.8c-4.6-6.5-3.1-15.5,3.4-20.1s15.5-3.1,20.1,3.4
				c14.5,20.5,33.2,43.7,44,54c20.3-32.8,78.6-123.4,81.4-127.8c4.3-6.7,13.2-8.6,19.9-4.3c6.7,4.3,8.6,13.2,4.3,19.9
				c-22,34.2-80.5,125.3-86.7,136.5c-3,5.4-8.4,8.8-14.5,9.1C256.4,563.7,255.9,563.7,255.3,563.7z"/>
		</g>
	</g>
	<g>
		<g>
			<g>
				<path class="st34" d="M1247.8,586.9c-34.9-20.3-53-68.5-41.6-118.4c11.4-49.5,48.3-84.9,88.2-88.4l0.8-3.5l22,5.1
					c47.8,11,75.6,67.6,62.1,126.5s-63.2,97.8-111,86.8l-21.4-4.3L1247.8,586.9z"/>
				<g>
					<path class="st35" d="M1284.6,598c-5.5,0-11-0.6-16.5-1.9l-22.5-4.5l0.9-4.1c-35.6-21.2-52.7-70.1-41.4-119.2
						c11.1-48.6,47.4-85.1,88.4-89.2l0.9-3.8l23.1,5.3c23.5,5.4,42.9,21.7,54.8,45.9c11.8,24.1,14.7,53.2,8.2,82
						C1368.4,561.1,1327.4,598,1284.6,598z M1248.3,589.8l20.2,4.1c47.2,10.8,96.4-27.8,109.7-86c6.5-28.2,3.6-56.8-8-80.5
						c-11.6-23.6-30.5-39.4-53.3-44.7l-20.9-4.8l-0.7,3.2l-0.8,0.1c-40.3,3.5-76.2,39.5-87.2,87.5c-11.1,48.4,5.8,96.6,41.1,117.2
						l0.7,0.4L1248.3,589.8z"/>
				</g>
			</g>
			<g>
				<path class="st7" d="M1184.1,463.5c-13.5,58.9,15,116.3,62.8,127.2c47.8,11,96.8-28.6,110.3-87.5s-14.3-115.5-62.1-126.5
					C1247.4,365.7,1197.6,404.6,1184.1,463.5z"/>
				<path class="st1" d="M1262.8,593.5c-5.4,0-10.8-0.6-16.1-1.8c-48.7-11.2-77.2-68.8-63.5-128.4l0,0c6.6-28.7,21.9-53.6,43-70.2
					c21.2-16.6,45.8-22.8,69.2-17.4c48.3,11.1,76.5,68.4,62.9,127.7C1346.1,556.3,1305.3,593.5,1262.8,593.5z M1278.7,375.8
					c-17.7,0-35.5,6.5-51.3,18.9c-20.8,16.3-35.8,40.8-42.3,69l0,0c-13.4,58.6,14.4,115.1,62,126c46.8,10.7,95.7-28.2,109.1-86.8
					c13.4-58.3-14.2-114.5-61.4-125.3C1289.6,376.4,1284.2,375.8,1278.7,375.8z"/>
			</g>
			<g>
				<path class="st1" d="M1199.6,467.1c-11.1,48.4,12.3,95.5,51.6,104.5c39.3,9,79.5-23.5,90.6-71.9s-11.8-94.9-51-103.9
					C1251.5,386.7,1210.7,418.7,1199.6,467.1z"/>
				<g>
					<path class="st1" d="M1264.5,574.2c-4.5,0-9.1-0.5-13.5-1.5c-19.3-4.4-35.5-17.9-45.4-38.1c-9.9-20.1-12.4-44.1-7-67.8
						c5.4-23.6,18-44.2,35.4-57.8c17.5-13.7,37.8-18.8,57.1-14.3c39.8,9.1,63.1,56.3,51.9,105.3c-5.4,23.7-17.9,44.4-35.1,58.1
						C1294.4,568.6,1279.4,574.2,1264.5,574.2z M1277.3,395.3c-14.5,0-29,5.3-42,15.4c-17,13.3-29.3,33.4-34.6,56.5
						c-5.3,23.1-2.9,46.7,6.8,66.3c9.6,19.5,25.2,32.6,43.9,36.9c18.6,4.3,38.1-0.8,54.9-14.2s29-33.6,34.4-56.8
						c10.9-47.7-11.6-93.7-50.2-102.6C1286.2,395.8,1281.7,395.3,1277.3,395.3z"/>
				</g>
			</g>
			<g>
				<g>
					<path class="st7" d="M1288.7,442.9c2.4,1.3,4.6,2.8,6.6,4.6c2,1.8,3.6,3.9,4.9,6.2c1.3,2.3,2.2,4.9,2.6,7.7
						c0.4,2.9,0.4,5.9-0.2,9.3l-9.3-3.4c0-3.6-0.6-6.6-1.8-9.1c-1.3-2.5-3.3-4.6-6.1-6.2l-9.5,25.9c1.6,1.5,3.1,3,4.7,4.5
						c1.5,1.5,3,3,4.3,4.6s2.5,3.2,3.5,4.8c1,1.7,1.8,3.4,2.4,5.2c0.6,1.8,0.8,3.7,0.8,5.6s-0.4,4-1.2,6.1c-1.3,3.5-3.1,6.3-5.3,8.4
						c-2.3,2.1-4.8,3.6-7.6,4.6c-2.8,1-5.7,1.5-8.8,1.5c-3.1,0-6-0.4-8.9-1l-4.7,12.9l-9.4-3.4l4.8-13.2c-2.6-1.6-4.8-3.6-6.7-6
						c-1.9-2.4-3.4-5.1-4.5-8s-1.8-6-2.1-9.3c-0.3-3.3-0.1-6.7,0.6-10.1l9.9,3.6c-0.4,2.1-0.5,4.1-0.4,6.1s0.4,3.9,0.9,5.6
						c0.5,1.8,1.2,3.4,2.2,4.9s2.1,2.7,3.5,3.8l10.3-28.1c-2.2-2.1-4.2-4.2-6.2-6.4c-1.9-2.2-3.5-4.4-4.8-6.8s-2.1-4.9-2.4-7.4
						c-0.3-2.6,0.1-5.4,1.1-8.3c1-2.6,2.4-4.9,4.3-6.7c1.9-1.8,4.1-3.3,6.5-4.3c2.5-1.1,5.1-1.7,8-1.9c2.9-0.2,5.7-0.1,8.6,0.5
						l3-8.3l9.4,3.4L1288.7,442.9z M1261.8,455.1c-0.5,1.4-0.7,2.7-0.6,4s0.4,2.6,1,3.9s1.3,2.6,2.3,3.9s2.1,2.6,3.4,3.9l8.1-22.2
						c-3.6-0.7-6.6-0.4-9.1,0.9C1264.4,450.7,1262.7,452.6,1261.8,455.1z M1280.5,505.3c0.5-1.4,0.6-2.8,0.3-4.2
						c-0.3-1.4-0.8-2.9-1.7-4.3c-0.8-1.5-1.8-2.9-3.1-4.4c-1.2-1.4-2.5-2.9-3.9-4.2l-9.1,25c2.1,0.5,4.1,0.6,5.9,0.4
						c1.9-0.2,3.6-0.6,5.1-1.3c1.5-0.7,2.9-1.6,4-2.8C1279.1,508.2,1280,506.8,1280.5,505.3z"/>
				</g>
				<g>
					<path class="st1" d="M1255.8,536.6l-11.7-4.3l4.9-13.4c-2.3-1.6-4.4-3.5-6.1-5.8c-1.9-2.5-3.5-5.3-4.6-8.3s-1.9-6.3-2.1-9.7
						c-0.3-3.4-0.1-6.9,0.7-10.4l0.3-1.4l12.1,4.4l-0.2,1c-0.4,2-0.5,3.9-0.4,5.8s0.3,3.7,0.8,5.4c0.5,1.6,1.1,3.2,2,4.5
						c0.6,0.9,1.2,1.7,2,2.4l9.4-25.7c-2-2-3.9-4-5.7-5.9c-2-2.2-3.7-4.6-5-7c-1.3-2.5-2.2-5.2-2.5-7.9c-0.4-2.8,0.1-5.8,1.2-8.9
						c1-2.8,2.6-5.2,4.6-7.2c2-1.9,4.3-3.5,6.9-4.6s5.4-1.8,8.3-2c2.6-0.2,5.3-0.1,8,0.4l3.1-8.5l11.7,4.3l-3.1,8.5
						c2.1,1.2,4.1,2.7,5.9,4.3c2.1,1.9,3.8,4.1,5.2,6.5c1.4,2.4,2.3,5.2,2.8,8.1c0.5,3,0.4,6.2-0.2,9.7l-0.3,1.4l-11.4-4.2v-0.9
						c0-3.4-0.5-6.3-1.7-8.6c-1-1.9-2.4-3.6-4.4-5l-8.7,23.7c1.4,1.3,2.8,2.6,4.1,3.9c1.5,1.5,3,3.1,4.4,4.7s2.6,3.3,3.6,5
						c1.1,1.7,1.9,3.6,2.5,5.5s0.9,3.9,0.8,6c0,2.1-0.5,4.2-1.3,6.5c-1.3,3.7-3.2,6.7-5.6,8.9c-2.4,2.2-5,3.8-8,4.9
						c-2.9,1-6,1.6-9.2,1.6l0,0c-2.8,0-5.5-0.3-8.1-0.8L1255.8,536.6z M1247.2,530.9l7.1,2.6l4.7-12.8l1,0.3c2.8,0.7,5.6,1,8.6,1
						l0,0c2.9,0,5.7-0.5,8.4-1.4c2.6-0.9,5-2.4,7.1-4.4s3.8-4.6,5-7.9c0.7-2,1.1-3.9,1.1-5.7c0-1.8-0.2-3.6-0.7-5.2
						c-0.5-1.7-1.3-3.3-2.2-4.9c-1-1.6-2.1-3.1-3.4-4.7c-1.3-1.5-2.7-3.1-4.2-4.5c-1.5-1.5-3.1-3-4.7-4.5l-0.6-0.5l10.2-28l1.2,0.7
						c3,1.8,5.2,4,6.6,6.7c1.2,2.5,1.9,5.4,1.9,8.8l7.1,2.6c0.4-2.6,0.4-5.1,0-7.4c-0.4-2.7-1.3-5.1-2.5-7.3
						c-1.2-2.2-2.8-4.2-4.7-5.9c-1.9-1.7-4.1-3.2-6.4-4.5l-0.9-0.5l3-8.2l-7.1-2.6l-3,8.2l-1-0.2c-2.8-0.6-5.6-0.7-8.3-0.5
						c-2.7,0.2-5.3,0.8-7.6,1.8c-2.3,1-4.4,2.4-6.1,4.1s-3.1,3.8-4,6.3c-1,2.8-1.4,5.4-1.1,7.8s1.1,4.8,2.3,7
						c1.2,2.3,2.8,4.5,4.7,6.6c1.9,2.1,3.9,4.2,6.1,6.3l0.6,0.5l-11.1,30.4l-1.3-1c-1.5-1.1-2.8-2.5-3.8-4.1s-1.8-3.3-2.3-5.2
						c-0.5-1.9-0.8-3.9-0.9-5.9c-0.1-1.8,0-3.6,0.3-5.4l-7.6-2.8c-0.5,2.8-0.6,5.6-0.4,8.4c0.2,3.2,0.9,6.2,2,9
						c1,2.8,2.5,5.4,4.3,7.6c1.8,2.3,3.9,4.2,6.3,5.8l0.8,0.5L1247.2,530.9z M1267.4,514.8c-1.5,0-3-0.2-4.6-0.5l-1.3-0.3l10.2-28
						l1.3,1.3c1.4,1.4,2.8,2.8,4,4.3c1.3,1.5,2.3,3,3.2,4.6c0.9,1.5,1.5,3.1,1.8,4.7s0.2,3.3-0.4,4.8l0,0c-0.6,1.7-1.6,3.2-2.8,4.5
						c-1.2,1.3-2.7,2.3-4.3,3.1c-1.7,0.7-3.5,1.2-5.5,1.4C1268.5,514.7,1268,514.8,1267.4,514.8z M1264.7,512.2
						c1.5,0.2,2.9,0.3,4.2,0.1c1.7-0.2,3.3-0.6,4.7-1.2c1.4-0.6,2.6-1.5,3.6-2.5s1.7-2.3,2.3-3.7c0.4-1.2,0.5-2.4,0.3-3.6
						c-0.3-1.3-0.8-2.7-1.5-4c-0.8-1.4-1.8-2.8-2.9-4.2c-0.8-1-1.7-1.9-2.5-2.8L1264.7,512.2z M1268.3,473l-1.3-1.4
						c-1.3-1.4-2.5-2.7-3.5-4c-1.1-1.4-1.9-2.7-2.5-4.1s-1-2.9-1.1-4.3c-0.1-1.5,0.1-3,0.7-4.5l0,0c1-2.8,2.9-4.9,5.7-6.3
						c2.7-1.3,6-1.7,9.8-1l1.4,0.3L1268.3,473z M1272.5,449.5c-1.9,0-3.6,0.4-5,1.1c-2.2,1.1-3.7,2.7-4.5,5l0,0
						c-0.4,1.2-0.6,2.4-0.5,3.5c0.1,1.2,0.4,2.4,0.9,3.5c0.5,1.2,1.2,2.4,2.2,3.6c0.6,0.8,1.2,1.6,1.9,2.3l6.9-18.9
						C1273.7,449.5,1273.1,449.5,1272.5,449.5z"/>
				</g>
			</g>
		</g>
	</g>
	<g>
		<g>
			<g>
				<path class="st34" d="M101.5,989.7c-30.5,2.2-62.4-20.3-76.6-56.3c-14-35.8-6-73.7,17.5-93l-1-2.5l15.9-6.2
					c34.6-13.5,76.2,10,92.9,52.7c16.7,42.6,2.2,88.2-32.4,101.7l-15.2,6.4L101.5,989.7z"/>
				<g>
					<path class="st35" d="M102.1,993.6l-1.2-3c-31.4,1.9-62.9-21.4-76.8-56.9c-13.8-35.2-6.7-73.5,17.3-93.5l-1.1-2.7l16.7-6.6
						c17-6.6,36.1-4.8,53.9,5.3c17.7,10,31.9,27,40.1,47.8c16.8,43,2.1,89.1-32.9,102.8L102.1,993.6z M102,988.8l1,2.5l14.4-6.1
						c34.1-13.4,48.5-58.5,32-100.6c-8-20.4-22-37.1-39.3-47c-17.3-9.8-35.9-11.7-52.4-5.2l-15.2,5.9l0.9,2.3l-0.5,0.4
						c-23.7,19.4-30.8,57.2-17.2,92c13.7,35.1,44.9,58,75.7,55.8L102,988.8z"/>
				</g>
			</g>
			<g>
				<path class="st7" d="M8.9,939.6c16.7,42.6,59,66.4,93.6,52.9s48.4-59.3,31.7-101.9c-16.7-42.6-58.3-66.2-92.9-52.7
					C6.8,851.4-7.7,897,8.9,939.6z"/>
				<path class="st1" d="M81.9,997.1c-29.7,0-60.1-22.3-73.7-57.2l0,0c-8.1-20.8-9.2-42.9-3-62.3c6.2-19.4,19-33.8,35.9-40.4
					c35-13.7,77,10.2,93.9,53.1c16.9,43.2,2.5,89.3-32.1,102.9C96,995.8,89,997.1,81.9,997.1z M61.7,834.8c-6.8,0-13.6,1.2-20.1,3.8
					c-16.5,6.5-29,20.5-35,39.5c-6.1,19-5,40.8,3,61.3l0,0c16.6,42.4,58.1,65.9,92.6,52.4c33.8-13.2,47.9-58.5,31.3-100.9
					C120.2,856.7,90.6,834.8,61.7,834.8z"/>
			</g>
			<g>
				<path class="st1" d="M20.1,935.3c13.7,35,48.5,54.5,76.9,43.4s39.8-48.7,26.1-83.7s-47.9-54.4-76.3-43.3
					C18.4,862.8,6.4,900.2,20.1,935.3z"/>
				<g>
					<path class="st1" d="M80.2,982.7c-9.1,0-18.5-2.6-27.6-7.7c-14.8-8.3-26.6-22.3-33.3-39.4l0,0c-6.7-17.1-7.6-35.3-2.5-51.3
						s15.6-27.9,29.6-33.3c28.8-11.3,63.5,8.3,77.4,43.8c6.7,17.2,7.7,35.4,2.8,51.4c-5,16.1-15.4,28-29.3,33.4
						C91.9,981.6,86.1,982.7,80.2,982.7z M20.9,935c6.6,16.7,18.1,30.4,32.5,38.6c14.4,8.1,29.7,9.6,43.2,4.3s23.5-16.8,28.3-32.3
						c4.8-15.6,3.8-33.4-2.8-50.2c-13.5-34.5-47.2-53.7-75.2-42.8c-13.5,5.3-23.7,16.7-28.6,32.3C13.5,900.4,14.4,918.2,20.9,935
						L20.9,935z"/>
				</g>
			</g>
		</g>
	</g>
	<g>
		<g>
			<path class="st7" d="M63.4,876c2.7-0.4,5.4-0.4,8.1-0.1c2.7,0.3,5.2,1,7.6,2.2c2.4,1.1,4.6,2.7,6.6,4.8s3.8,4.6,5.2,7.7l-9.5,2.6
				c-2-2.9-4.3-5.1-6.8-6.4c-2.5-1.3-5.4-1.8-8.6-1.5l7.3,26.6c2.1,0.3,4.3,0.6,6.4,0.9c2.1,0.3,4.2,0.7,6.2,1.2s3.9,1.1,5.7,1.9
				c1.8,0.8,3.4,1.7,4.9,2.8s2.8,2.5,3.9,4.1s1.9,3.5,2.5,5.6c1,3.6,1.2,6.9,0.6,9.9s-1.8,5.7-3.5,8.2c-1.7,2.4-3.8,4.5-6.3,6.3
				s-5.1,3.2-7.9,4.3l3.7,13.3l-9.6,2.7l-3.7-13.5c-3,0.2-6-0.2-8.9-1c-2.9-0.9-5.7-2.2-8.3-3.9c-2.6-1.7-5-3.9-7.1-6.4
				s-3.9-5.4-5.4-8.6l10.1-2.8c0.9,1.9,2,3.6,3.2,5.2c1.2,1.6,2.5,2.9,4,4.1c1.4,1.1,3,2,4.6,2.7c1.6,0.6,3.3,1,5.1,1.1l-8-28.9
				c-3-0.4-5.9-1-8.7-1.6s-5.5-1.5-7.9-2.7s-4.5-2.7-6.3-4.7c-1.8-1.9-3.1-4.4-3.9-7.5c-0.8-2.7-0.9-5.4-0.4-8s1.4-5,2.8-7.3
				c1.4-2.3,3.2-4.3,5.4-6.2c2.2-1.8,4.6-3.4,7.3-4.6l-2.4-8.5l9.6-2.7L63.4,876z M48.6,901.6c0.4,1.4,1,2.6,1.9,3.6
				c0.8,1,1.9,1.9,3.1,2.6c1.2,0.7,2.6,1.3,4.1,1.8c1.6,0.5,3.2,0.9,5,1.2L56.4,888c-3.3,1.5-5.6,3.5-6.9,6
				C48.1,896.5,47.8,899,48.6,901.6z M92.9,931.5c-0.4-1.4-1.1-2.6-2.2-3.6s-2.3-1.9-3.9-2.6c-1.5-0.7-3.2-1.3-5-1.8
				s-3.7-0.8-5.7-1.2l7.1,25.6c2-0.8,3.7-1.9,5.1-3.1c1.4-1.2,2.5-2.6,3.4-4c0.8-1.5,1.4-3,1.6-4.6
				C93.5,934.7,93.4,933.1,92.9,931.5z"/>
		</g>
		<g>
			<path class="st1" d="M91,971.4l-12,3.3l-3.8-13.8c-2.8,0.1-5.6-0.3-8.4-1.1c-3-0.9-5.9-2.2-8.6-4c-2.7-1.8-5.2-4-7.3-6.6
				c-2.2-2.6-4.1-5.6-5.5-8.9l-0.6-1.3l12.4-3.4l0.4,0.9c0.9,1.8,1.9,3.5,3,5s2.4,2.8,3.8,3.9c1.3,1.1,2.8,1.9,4.3,2.5
				c1,0.4,2,0.7,3,0.8l-7.2-26.4c-2.8-0.4-5.5-0.9-8-1.5c-2.9-0.6-5.6-1.6-8.1-2.8c-2.6-1.3-4.8-2.9-6.6-4.9c-1.9-2.1-3.3-4.7-4.2-8
				c-0.8-2.9-1-5.7-0.5-8.5c0.5-2.7,1.5-5.3,2.9-7.7c1.5-2.4,3.3-4.6,5.6-6.5c2-1.7,4.3-3.2,6.7-4.3l-2.4-8.7l12-3.3l2.4,8.7
				c2.5-0.3,4.9-0.2,7.3,0c2.8,0.3,5.5,1.1,8,2.3s4.9,2.9,7,5c2.1,2.2,3.9,4.9,5.4,8l0.6,1.3l-11.7,3.2l-0.5-0.7
				c-1.9-2.8-4.1-4.8-6.4-6c-1.9-1-4.1-1.5-6.5-1.5l6.7,24.4c1.9,0.3,3.8,0.5,5.6,0.8c2.1,0.3,4.2,0.7,6.3,1.3
				c2.1,0.5,4,1.2,5.8,1.9c1.9,0.8,3.6,1.8,5.2,3s3,2.7,4.1,4.4c1.2,1.7,2.1,3.7,2.7,6c1,3.8,1.2,7.3,0.6,10.5
				c-0.6,3.1-1.9,6-3.6,8.6c-1.8,2.5-4,4.8-6.6,6.6l0,0c-2.3,1.6-4.6,3-7.1,4L91,971.4z M80.7,971.7l7.3-2l-3.6-13.2l1-0.4
				c2.6-1.1,5.2-2.5,7.6-4.2l0,0c2.4-1.7,4.4-3.7,6-6s2.7-4.9,3.3-7.7c0.6-2.8,0.4-6-0.5-9.4c-0.6-2-1.4-3.8-2.4-5.3
				s-2.3-2.8-3.6-3.8c-1.4-1.1-3-2-4.7-2.7s-3.6-1.3-5.5-1.8c-2-0.5-4-0.9-6-1.2c-2.1-0.3-4.2-0.6-6.4-0.9l-0.8-0.1l-7.9-28.7
				l1.4-0.1c3.5-0.3,6.6,0.2,9.3,1.6c2.4,1.3,4.7,3.3,6.7,6.1l7.3-2c-1.2-2.4-2.7-4.4-4.3-6.1c-1.9-1.9-4-3.5-6.3-4.5
				c-2.3-1.1-4.7-1.8-7.2-2.1c-2.6-0.3-5.2-0.3-7.8,0.1l-1,0.1l-2.3-8.4l-7.3,2l2.3,8.4l-0.9,0.4c-2.6,1.2-5,2.6-7.1,4.4
				c-2.1,1.8-3.8,3.7-5.1,5.9c-1.3,2.1-2.2,4.5-2.6,6.9c-0.4,2.4-0.3,4.9,0.4,7.4c0.8,2.8,2,5.2,3.6,7s3.6,3.3,5.9,4.4
				c2.3,1.1,4.9,2,7.6,2.6c2.7,0.6,5.6,1.1,8.7,1.6l0.8,0.1l8.6,31.2l-1.6-0.1c-1.9-0.1-3.7-0.5-5.5-1.2s-3.4-1.7-4.9-2.9
				s-2.9-2.7-4.2-4.3c-1.1-1.4-2-2.9-2.9-4.5l-7.8,2.1c1.3,2.6,2.8,4.9,4.6,7c2,2.4,4.3,4.5,6.8,6.2c2.5,1.7,5.1,2.9,7.9,3.7
				c2.8,0.8,5.6,1.2,8.5,1l1-0.1L80.7,971.7z M87.8,946.9c-1.2,0.9-2.5,1.6-4,2.2l-1.3,0.5l-7.9-28.8l1.8,0.3
				c1.9,0.3,3.9,0.7,5.8,1.2s3.7,1.1,5.3,1.9c1.6,0.7,3,1.7,4.2,2.8s2,2.5,2.5,4.2l0,0c0.5,1.8,0.6,3.5,0.4,5.3s-0.8,3.4-1.7,5
				c-0.9,1.6-2.1,3-3.6,4.3C88.7,946.2,88.2,946.6,87.8,946.9z M84.1,946.3c1.3-0.7,2.5-1.4,3.5-2.3c1.3-1.1,2.3-2.4,3.1-3.7
				c0.8-1.3,1.2-2.7,1.4-4.1c0.2-1.4,0.1-2.9-0.3-4.3c-0.3-1.2-0.9-2.2-1.8-3.1c-1-0.9-2.2-1.7-3.6-2.3c-1.5-0.7-3.1-1.3-4.8-1.7
				c-1.2-0.3-2.5-0.6-3.7-0.8L84.1,946.3z M64.3,912.4l-1.9-0.3c-1.9-0.3-3.5-0.7-5.1-1.2c-1.7-0.5-3.1-1.1-4.4-1.9
				c-1.3-0.8-2.5-1.8-3.4-2.9c-1-1.1-1.7-2.5-2.1-4.1l0,0c-0.8-2.9-0.5-5.7,1-8.5c1.4-2.7,3.9-4.9,7.4-6.5l1.3-0.6L64.3,912.4z
				 M54,890.8c-1.6,1.1-2.7,2.4-3.5,3.8c-1.2,2.2-1.4,4.4-0.8,6.7l0,0c0.3,1.2,0.9,2.3,1.6,3.2c0.8,0.9,1.7,1.7,2.8,2.3
				c1.1,0.7,2.4,1.2,3.9,1.7c0.9,0.3,1.9,0.5,2.9,0.8l-5.4-19.4C55,890.2,54.5,890.5,54,890.8z"/>
		</g>
	</g>
</g>
</svg>
