<svg id="Layer_1" data-name="Layer 1" xmlns="http://www.w3.org/2000/svg" viewBox="0 0 495.49 495.88"><defs><style>.cls-1{fill:#3a3a3c;}</style></defs><title>icon call</title><path class="cls-1" d="M476.79,362.75l-63.14-34c-15.37-8.29-27.33-2.29-40.56,15.92-29.07,40-43.17,47.9-78.84,28C261,354,237.13,332,207.24,302.07s-52-53.73-70.55-87c-19.92-35.67-12-49.77,28-78.84C182.89,123,188.88,111,180.6,95.66l-34-63.14C132.66,5.67,112.93,2.6,83.77,12.47,43.54,26.08,4.6,84.18,6.58,111.75c5.77,80.57,46.11,177.37,130.06,261.31S317.38,497.35,397.95,503.12c27.57,2,85.29-37.34,98.9-77.57C506.71,396.38,503.65,376.66,476.79,362.75Z" transform="translate(-6.51 -7.31)"/><path class="cls-1" d="M287.92,119.61a24.1,24.1,0,0,0,.19,48.19c.23,0,.45,0,.66,0a53.35,53.35,0,0,1,53.48,53.93A24.1,24.1,0,0,0,366.15,246h.2a24.1,24.1,0,0,0,24.09-23.9,101,101,0,0,0-29.74-72.77C341.3,129.95,315.06,119.77,287.92,119.61ZM431.76,78.29A201.58,201.58,0,0,0,288,19.08a24.1,24.1,0,0,0,.09,48.19,4.47,4.47,0,0,1,.66,0,154,154,0,0,1,154,154.57,24.1,24.1,0,0,0,24,24.18h.09A24.09,24.09,0,0,0,491,222,200.81,200.81,0,0,0,431.76,78.29Z" transform="translate(-6.51 -7.31)"/></svg>