<svg id="Layer_1" data-name="Layer 1" xmlns="http://www.w3.org/2000/svg" viewBox="0 0 510.5 473.58"><defs><style>.cls-1{fill:#3a3a3c;}</style></defs><title>icon chat ttv</title><path class="cls-1" d="M486.73,152.87,286.08,27.81a56.86,56.86,0,0,0-60.15,0L25.27,152.87A51.48,51.48,0,0,0,.75,196.49V441c0,28.61,23.81,51.79,53.18,51.79H458.07c29.37,0,53.18-23.19,53.18-51.79V196.49A51.48,51.48,0,0,0,486.73,152.87ZM190.64,359.4,66.33,456.09a17.26,17.26,0,1,1-21.2-27.25l124.31-96.69a17.26,17.26,0,1,1,21.2,27.25Zm48.94-40.57L82.12,207.34C64.69,195,73.65,168.15,95.2,168.15H416.8c21.55,0,30.51,26.85,13.08,39.19L272.43,318.83A28.43,28.43,0,0,1,239.57,318.83ZM469.91,453.07a17.26,17.26,0,0,1-24.23,3L321.36,359.4a17.26,17.26,0,1,1,21.2-27.25l124.31,96.69A17.26,17.26,0,0,1,469.91,453.07Z" transform="translate(-0.75 -19.21)"/><path class="cls-1" d="M318.15,200.75H207.66a20.72,20.72,0,1,0,0,41.44h110.5a20.72,20.72,0,0,0,0-41.44Z" transform="translate(-0.75 -19.21)"/></svg>