<svg id="Layer_1" data-name="Layer 1" xmlns="http://www.w3.org/2000/svg" viewBox="0 0 509.08 411.15"><defs><style>.cls-1{fill:#3a3a3c;}</style></defs><title>icon các loại thưởng con</title><path class="cls-1" d="M507.54,132.21a26.1,26.1,0,0,0-21.65-11.51H29A26.11,26.11,0,0,0,2.92,146.81V434A26.11,26.11,0,0,0,29,460.08H485.89A26.1,26.1,0,0,0,512,434V146.81A26,26,0,0,0,507.54,132.21ZM466.31,355.66a58.74,58.74,0,0,0-58.74,58.74H107.35a58.74,58.74,0,0,0-58.74-58.74V225.13a58.74,58.74,0,0,0,58.74-58.74H407.57a58.74,58.74,0,0,0,58.74,58.74Z" transform="translate(-2.92 -48.93)"/><path class="cls-1" d="M254.25,254A15.74,15.74,0,0,1,270,263.38a16.32,16.32,0,0,0,29.93-13,47.85,47.85,0,0,0-23.28-24v-6a16.32,16.32,0,0,0-32.63,0v2.43c-14.69,4-25.57,15.65-28.49,31.24a40.25,40.25,0,0,0,21.2,43.51l26.54,13.65a7.82,7.82,0,0,1,4.13,8.44c-.38,2.33-1.67,5.25-6.76,6a15.83,15.83,0,0,1-15.78-9.38,16.32,16.32,0,1,0-29.93,13,48.26,48.26,0,0,0,29.09,26.52v2.49a16.32,16.32,0,1,0,32.63,0v-3.53a39,39,0,0,0,23-30,40,40,0,0,0-21.4-42.6L251.7,268.5a7.52,7.52,0,0,1-4.05-8.49A7,7,0,0,1,254.25,254ZM120.4,264.29a26.1,26.1,0,1,0,26.1,26.1A26.1,26.1,0,0,0,120.4,264.29Zm274.12,0a26.1,26.1,0,1,0,26.1,26.1A26.1,26.1,0,0,0,394.52,264.29ZM441.47,48.93H76a19.58,19.58,0,1,0,0,39.16H441.47a19.58,19.58,0,1,0,0-39.16Z" transform="translate(-2.92 -48.93)"/></svg>