<svg id="Layer_1" data-name="Layer 1" xmlns="http://www.w3.org/2000/svg" viewBox="0 0 481.47 497.35"><defs><style>.cls-1{fill:#3a3a3c;}.cls-2{fill:#fff;}</style></defs><title>xem bản đfô ttv</title><path class="cls-1" d="M460.41,250.11a387.8,387.8,0,0,1-35.92,34.18c-1.42,94.23-73.56,171.61-165.65,181.12V97.58c.5.05,1,.17,1.48.22a135,135,0,0,1,11-37,222.93,222.93,0,0,0-31.57-2.5C116.65,58.32,16.53,158.44,16.53,281.5S116.65,504.67,239.71,504.67,462.88,404.55,462.88,281.5A222.72,222.72,0,0,0,460.41,250.11ZM151.69,118.91c-22.79,37.72-37.31,90.29-39.16,149.84H55.44A185.07,185.07,0,0,1,151.69,118.91ZM56.76,307H113c3.39,54.31,17.51,102.06,38.66,137.08A185.24,185.24,0,0,1,56.76,307ZM220.58,461.94c-37.49-17.8-63.68-86.25-69-154.94h69Zm0-193.2H150.77c2.88-72.77,30-148.78,69.81-167.69Z" transform="translate(-16.53 -7.31)"/><path class="cls-1" d="M498,114.2A106.88,106.88,0,0,0,391.12,7.31a110.57,110.57,0,0,0-11.71.62c-56.81,6-99.62,60.68-94.68,117.59,6.48,74.56,75,130.16,98.54,147.14a12.79,12.79,0,0,0,15.43-.28C423.1,253.33,498,188.76,498,114.2" transform="translate(-16.53 -7.31)"/><circle class="cls-2" cx="374.58" cy="106.88" r="49.88"/></svg>